<svg preserveAspectRatio="none" width="100%" height="100%" overflow="visible" style="display: block;" viewBox="0 0 161.257 219.635" fill="none" xmlns="http://www.w3.org/2000/svg">
<g id="Group 2">
<path id="Vector" d="M0 130.806V158.067C0.55547 158.183 0.818739 158.73 1.21509 159.21L5.64728 164.58C7.7245 167.099 9.52978 169.657 10.4295 172.894L10.3022 187.484C10.2762 190.383 7.73029 194.361 7.84312 194.615C8.26261 195.556 10.2704 193.172 11.066 192.57C15.7817 189.003 19.1001 184.119 20.156 178.206C20.4974 176.285 20.2717 174.37 20.1271 172.408C19.8436 168.604 19.7626 164.771 18.6979 161.038L17.7201 157.619C17.3874 156.456 16.8174 155.533 16.4789 154.243C15.8801 151.948 14.3323 149.944 12.9581 148.017L3.70024 135.027L0.789808 131.275C0.558363 130.977 0.266163 130.843 0 130.806Z" fill="var(--fill-0, #39B89A)"/>
<path id="Vector_2" d="M0 119.014C0.870814 118.898 1.23534 119.76 1.83131 120.35L8.97431 127.421C13.1722 131.576 16.6641 138.395 17.0807 144.369C17.3497 148.231 17.7548 151.966 18.6603 155.739C19.8523 153.881 20.3846 151.671 21.3364 149.547L24.3741 142.778C25.0424 141.291 26.3559 139.427 25.0858 137.894L18.7413 130.227L13.6119 122.234C10.9734 118.123 8.78336 113.931 7.03595 109.36C5.18438 104.499 3.47747 104.667 0 101.968V119.011V119.014Z" fill="var(--fill-0, #39B89A)"/>
<path id="Vector_3" d="M0 85.7727V91.2522C1.43496 90.9832 2.65295 90.2339 4.16602 89.6118L42.4443 73.8822C42.4066 72.4299 42.3054 71.1396 42.0219 69.6583C27.5681 74.6576 13.8289 80.1862 0 85.7727Z" fill="var(--fill-0, #39B89A)"/>
<path id="Vector_4" d="M0 219.635C0.665406 219.462 0.84767 218.689 1.2961 218.148C3.8015 215.142 4.66074 211.407 3.77546 207.568C3.46879 206.231 3.28942 204.895 2.84389 203.602C1.63169 200.081 1.35106 196.404 0 193.094V219.635Z" fill="var(--fill-0, #39B89A)"/>
<path id="Vector_5" d="M111.557 167.273C111.734 168.474 112.709 173.161 112.541 174.003C112.286 175.284 112.836 176.387 112.981 177.599C113.241 179.766 111.546 185.601 111.06 187.823C110.435 190.693 108.574 193.068 105.904 194.298C105.624 194.425 105.117 193.979 105.002 194.468C104.495 196.621 116.583 195.362 117.277 189.622L118.663 178.18C119.941 179.068 119.802 180.367 119.771 181.513L119.623 187.12C119.591 188.349 119.765 189.504 119.915 190.777C121.122 190.829 124.929 187.936 125.461 187.227L128.586 183.084C130.544 180.489 130.666 176.612 130.605 173.404L130.362 160.816C130.296 157.431 129.795 154.182 128.939 150.861C126.827 142.648 120.083 138.262 115.509 127.965C113.739 123.981 111.693 120.278 110.31 116.153C110.082 115.467 110.25 114.66 110.652 114.162C111.763 112.791 113.877 114.443 114.942 115.745L118.171 119.697C119.389 121.187 120.205 122.703 121.223 124.224C123.222 127.213 127.851 132.588 128.861 135.004C129.92 137.544 130.686 140.116 131.548 142.749C132.182 144.687 132.538 146.591 133.299 148.529C134.129 150.641 135.02 152.704 135.584 154.943C136.53 158.701 136.545 162.752 135.7 166.443C135.113 169.012 132.966 171.555 133.004 173.32C138.176 171.075 139.895 169.947 142.354 165.043C143.268 163.226 144.075 161.583 144.434 159.549C144.923 156.786 145.863 153.957 145.218 151.147L143.766 144.826C147.906 140.938 149.263 140.923 151.982 135.881C153.958 132.215 154.629 128.168 154.566 123.955C154.551 123.047 154.852 122.275 154.583 121.297C154.273 120.16 154.473 118.8 154.152 117.585L152.283 110.451C152.202 110.138 145.204 96.7287 145.209 96.7374C142.886 94.7383 140.546 92.6582 137.884 91.0785C133.623 88.5471 129.726 85.9867 125.971 82.706C125.033 81.8873 118.263 77.5245 118.781 75.887C119.97 72.1492 133.981 78.6759 136.548 79.7117C139.825 81.0367 142.895 82.246 145.667 84.4997C147.099 85.6656 149.034 86.5249 149.905 88.2289C150.712 89.8143 150.596 91.7526 151.129 93.4335L152.668 98.2997C153.27 100.2 154.025 101.962 154.56 104.011C156.536 101.89 157.464 99.3383 158.68 96.8618C160.63 92.8925 161.344 88.767 161.249 84.303C161.176 80.9296 161.211 77.6634 160.453 74.3682L158.601 66.3254C158.387 65.391 157.751 65.0756 156.993 64.6388C155.59 63.8345 154.418 62.602 152.772 62.2231L143.309 60.0359C141.888 59.709 140.633 59.3792 139.174 59.1969L127.868 57.7648C126.662 57.6115 125.765 56.0955 126.228 55.1958C128.725 50.3586 136.886 52.7887 141.599 52.673C142.927 52.6412 144.263 52.2709 145.583 52.375C151.187 52.8148 156.987 57.1283 160.534 61.5547C160.919 58.4939 156.064 52.5457 154.048 50.8735C151.172 48.4867 147.721 46.8088 144.136 45.8222C139.959 44.6737 129.807 44.3236 123.821 38.5664L117.936 32.9047C112.868 28.0298 104.848 30.6568 100.06 34.7186C95.2258 38.8181 98.605 40.4151 93.9326 48.6054C93.3916 49.5514 92.1332 50.049 91.7426 50.995C91.1408 52.456 92.7725 55.4735 91.5603 55.3694C91.3867 55.3549 90.9846 55.3549 90.8544 55.0222C89.6393 51.9555 87.4146 50.0635 89.7608 46.0681C92.4485 41.4942 95.5614 35.6155 96.1082 30.0261C96.6926 24.0374 95.9694 17.8607 94.1409 12.1324C93.2267 9.26538 91.5864 6.90174 89.891 4.57282C84.9641 -2.19408 74.4391 -0.458235 72.7322 3.40691C72.0118 5.03571 74.037 5.9991 74.5549 6.91331C74.7342 7.22866 74.7892 7.93746 75.524 8.19494C74.9338 8.98475 74.0225 8.57394 73.3658 7.82752C72.9087 9.03972 73.253 10.1622 73.1083 11.3889C72.6223 15.4999 72.7554 19.4692 73.5683 23.5369C73.6464 23.9304 73.4728 24.4858 73.3369 24.7086C72.5876 25.9584 64.4031 22.7731 62.7424 22.1887C60.1763 21.289 57.7316 20.3401 55.2436 18.7749C54.6534 19.935 55.7904 20.4384 56.5571 20.7943C57.8329 21.3873 58.8484 22.2553 60.0519 22.8946C62.4936 24.1849 64.6143 25.8571 66.6828 27.6595C68.4852 29.2276 70.7186 29.569 72.6541 30.7378L75.7121 32.5864C76.9011 33.3039 77.5376 34.6694 78.5502 35.5634C80.2426 37.0533 81.044 39.2492 80.4336 41.4826C80.2166 42.2782 79.2619 42.7643 78.5155 42.2406C78.0728 41.9282 77.1384 41.7141 76.7652 41.4016C75.7381 39.8307 74.2627 38.9396 73.0707 37.5336L65.3954 28.4638C64.649 27.5843 63.6711 26.8813 62.7916 26.1638C61.1744 24.8417 59.0277 24.7057 57.1675 23.9188C54.6795 22.8657 52.0699 23.7249 49.7844 24.6478C47.4989 25.5707 47.0909 26.8292 46.5384 28.8949C45.6791 32.1004 44.681 37.8721 44.9558 41.257C45.0311 42.1972 44.8199 43.3892 44.707 44.3988L43.2808 57.1023C43.1998 57.8285 43.5961 58.0744 43.5643 58.7109L43.4688 60.6145C46.8132 57.0155 50.3022 55.9538 55.0961 55.19C57.885 54.7474 60.3441 54.594 62.9797 55.731C64.892 56.5555 66.9605 56.9721 68.6877 58.5633C66.0405 59.5961 65.54 60.519 62.9479 61.575L55.3217 64.6822L42.6501 69.4297C42.6067 70.775 43.0175 72.019 43.5758 73.4019L53.6611 69.5223C53.3863 70.8589 51.931 71.1569 51.0805 72.0103C48.5751 74.5244 45.2567 75.2505 44.4062 77.241C43.9722 78.2593 44.2065 79.4773 43.8738 80.4581C43.2055 82.4427 43.9143 84.1699 44.1545 86.0735C44.3599 87.7081 44.0966 89.1315 45.3204 90.5375C50.4151 96.3989 51.2801 100.018 52.0815 108.046C52.5039 112.282 52.906 116.312 52.4286 120.562C52.177 122.792 52.2551 125.147 52.42 127.387C52.9697 128.631 54.61 129.351 55.5705 130.233C57.7403 132.224 60.2457 134.272 61.4406 137.073C63.078 140.915 66.5989 146.478 67.2556 150.297L67.8516 153.76C68.1641 155.568 67.6607 157.431 68.7195 158.938L68.8787 152.05L69.139 148.792C69.4081 145.428 70.383 142.15 71.8846 139.156C73.0996 136.731 74.876 134.802 76.282 132.513L81.5677 123.932C84.0846 119.847 83.6102 118.163 89.0694 114.452C90.5622 113.436 92.7552 113.728 93.4177 115.496C94.3087 117.877 90.0704 123.064 87.8283 124.673C85.2563 126.522 83.3006 128.729 81.1279 131.058C76.9648 135.519 73.7969 140.764 72.2896 146.756C71.3262 150.592 71.5287 154.451 71.3638 158.351C71.332 159.141 71.1005 159.743 71.7225 160.414C72.4284 161.172 72.5905 162.248 73.0505 163.133C74.3784 165.7 76.1229 173.172 75.3649 176.381C75.5038 176.913 75.741 176.983 75.8799 176.43C77.4537 172.643 79.2098 169.2 80.9919 165.581C83.2341 161.027 85.4386 156.693 88.0163 152.325C90.3076 148.442 90.5564 147.302 95.4891 145.468C97.1179 148.087 92.2749 155.232 91.109 157.185L88.0597 162.292L84.1743 169.151C82.2909 172.478 80.5319 180.978 80.2889 185.022C81.2089 186.382 82.803 187.001 84.2785 187.84C86.6363 189.183 92.4225 191.821 95.0725 192.932L99.2761 194.694C99.6291 193.626 100.746 193.406 101.388 192.709C105.409 188.349 107.108 182.557 106.83 176.624L106.561 170.884C106.402 167.476 106.41 164.143 106.784 160.755C106.888 159.809 107.822 159.485 108.525 159.711C109.9 160.151 109.954 161.279 110.305 162.375C110.834 164.042 111.285 165.552 111.54 167.279L111.557 167.273ZM59.9246 67.4132C62.3085 66.1403 64.6519 65.3302 67.1197 64.3379C68.0194 63.9763 68.9886 63.8779 69.7581 63.1604C71.0224 63.1228 71.9424 62.3446 73.0678 61.9337C73.7911 61.6676 74.5346 61.7139 74.7429 60.8749L77.7517 63.8663C79.0391 65.1479 79.4297 67.1297 79.0189 68.8684C76.1663 69.0623 73.6001 68.6717 70.8778 68.2985C67.2412 67.798 63.8765 67.6418 59.9217 67.4103L59.9246 67.4132ZM54.3641 121.201C53.8318 122.133 54.0893 123.331 53.0391 123.958C52.4836 123.16 54.474 114.715 54.7865 113.916C57.3093 107.482 60.0808 102.579 65.3028 97.9293C66.6799 96.7027 68.4678 95.8 70.0503 94.8424C73.6811 92.6466 77.5781 91.0178 81.5619 89.6494C83.1733 89.0968 87.6865 89.8808 87.6836 92.2705C87.6836 94.2841 83.8503 95.531 82.0479 96.0546L74.8933 98.1319C72.8537 98.7249 70.9848 99.9371 69.3415 101.271C68.0397 102.327 67.0473 103.6 65.867 104.766C63.9575 106.655 61.9411 108.33 60.3383 110.517C58.7355 112.704 56.9447 114.486 56.1086 117.012C55.6342 118.441 55.18 119.763 54.3641 121.195V121.201ZM142.192 135.221C143.395 138.936 141.981 140.076 141.741 139.728C141.639 139.584 141.321 139.326 141.258 139.109L138.879 130.91C137.809 127.219 136.284 123.926 134.476 120.463C133.145 117.918 130.967 115.991 128.997 113.856C126.17 110.795 123.775 107.592 121.272 104.268C119.207 101.52 116.99 99.0634 115.229 96.1327C114.832 95.4702 114.583 94.7933 114.902 94.2812C116.366 91.9204 120.375 96.127 121.576 97.2495L124.431 99.9256L128.027 103.588L133.061 108.327L138.443 113.404C139.464 114.368 139.438 116.514 139.363 117.822C139.218 120.351 139.629 122.442 140.008 124.829C140.563 128.336 141.049 131.7 142.189 135.218L142.192 135.221ZM117.638 167.418L116.319 162.928L112.431 150.907L110.785 146.565C110.044 144.612 107.623 138.531 109.173 137.165C110.724 135.8 113.114 139.983 113.733 141.259L116.956 147.901C118.072 150.204 118.862 152.849 118.856 155.464L118.825 170.6C117.612 169.741 117.945 168.462 117.636 167.415L117.638 167.418Z" fill="var(--fill-0, #39B89A)"/>
<path id="Vector_6" d="M98.0379 201.212C98.0813 202.471 97.9309 203.466 97.7023 204.623C99.01 203.813 99.687 202.697 100.025 201.308C99.3832 201.126 98.7814 201.126 98.0379 201.215V201.212Z" fill="var(--fill-0, #39B89A)"/>
</g>
</svg>
