<svg preserveAspectRatio="none" width="100%" height="100%" overflow="visible" style="display: block;" viewBox="0 0 3053 1223" fill="none" xmlns="http://www.w3.org/2000/svg">
<g id="_&#208;&#161;&#208;&#187;&#208;&#190;&#208;&#185;_1" opacity="0.35" clip-path="url(#clip0_0_24)">
<path id="Vector" d="M1526.62 27.934V27.6705C1550.21 27.731 1574.01 30.0419 1597.41 34.6767C1621.09 39.3589 1644.36 46.404 1666.67 55.652C1688.99 64.8999 1710.35 76.3465 1730.36 89.7325C1750.36 103.119 1769.02 118.444 1786.01 135.428C1803 152.417 1818.34 171.064 1831.73 191.063C1845.12 211.058 1856.57 232.413 1865.82 254.723C1875.07 277.024 1882.12 300.285 1886.81 323.964C1891.5 347.639 1893.81 371.72 1893.82 395.594C1893.81 419.467 1891.5 443.548 1886.81 467.223C1882.12 490.898 1875.07 514.159 1865.82 536.464C1856.57 558.774 1845.12 580.126 1831.73 600.125C1818.34 620.124 1803.01 638.775 1786.02 655.764C1769.02 672.748 1750.37 688.073 1730.36 701.459C1710.36 714.845 1689 726.292 1666.68 735.54C1644.37 744.792 1621.1 751.837 1597.42 756.519C1574.74 761.007 1551.69 763.318 1528.81 763.513V763.802C1524.43 763.811 1520.26 764.23 1516.23 765.029C1512.2 765.828 1508.29 767.011 1504.5 768.579C1496.94 771.702 1489.81 776.445 1483.83 782.428C1477.84 788.414 1473.1 795.537 1469.97 803.096C1468.4 806.884 1467.22 810.789 1466.42 814.819C1465.62 818.854 1465.21 823.018 1465.19 827.393C1465.2 831.769 1465.62 835.933 1466.42 839.967C1467.22 843.997 1468.4 847.902 1469.97 851.69C1473.1 859.249 1477.84 866.376 1483.83 872.359C1489.81 878.341 1496.94 883.084 1504.5 886.207C1508.29 887.775 1512.2 888.958 1516.23 889.758C1519.51 890.405 1522.88 890.799 1526.38 890.933V891.006L3053 890.984V863.318L1528.81 863.34V863.318C1526.21 863.305 1523.85 863.063 1521.6 862.618C1519.35 862.174 1517.21 861.521 1515.1 860.653C1510.91 858.925 1506.84 856.239 1503.39 852.8C1499.95 849.358 1497.26 845.284 1495.53 841.095C1494.66 838.991 1494.01 836.844 1493.57 834.598C1493.12 832.348 1492.87 829.998 1492.87 827.393C1492.88 824.793 1493.12 822.439 1493.57 820.188C1494.01 817.942 1494.66 815.795 1495.53 813.692C1497.26 809.502 1499.95 805.433 1503.39 801.986C1506.83 798.548 1510.91 795.857 1515.1 794.133C1517.2 793.261 1519.35 792.613 1521.6 792.168C1523.85 791.723 1526.2 791.477 1528.8 791.468V791.179C1553.46 790.984 1578.32 788.505 1602.78 783.659C1628.26 778.626 1653.28 771.046 1677.28 761.098C1701.28 751.15 1724.25 738.844 1745.75 724.452C1767.26 710.059 1787.32 693.585 1805.58 675.331C1823.84 657.068 1840.32 637.026 1854.72 615.519C1869.12 594.021 1881.43 571.059 1891.38 547.064C1901.33 523.078 1908.91 498.06 1913.95 472.597C1918.99 447.138 1921.48 421.243 1921.49 395.598C1921.48 369.953 1918.99 344.058 1913.95 318.599C1908.91 293.136 1901.33 268.118 1891.38 244.132C1881.43 220.141 1869.12 197.179 1854.72 175.681C1840.32 154.179 1823.84 134.132 1805.58 115.874C1787.31 97.6199 1767.26 81.1454 1745.75 66.753C1724.24 52.3605 1701.27 40.0501 1677.27 30.1067C1653.27 20.1589 1628.25 12.5783 1602.77 7.5461C1577.31 2.49233 1551.41 0 1525.75 0V0.267807L0 0.289404V27.9556L1526.62 27.934Z" fill="var(--fill-0, #FF91AD)"/>
<path id="Vector_2" d="M1526.62 55.6045V55.341C1548.44 55.4014 1570.42 57.5396 1592.04 61.8202C1613.94 66.1483 1635.44 72.662 1656.07 81.2146C1676.7 89.7628 1696.45 100.345 1714.96 112.729C1733.46 125.109 1750.72 139.285 1766.44 154.995C1782.16 170.71 1796.34 187.961 1808.72 206.462C1821.11 224.958 1831.7 244.702 1840.25 265.327C1848.8 285.948 1855.32 307.446 1859.65 329.337C1863.99 351.224 1866.13 373.5 1866.14 395.598C1866.13 417.696 1863.99 439.968 1859.65 461.859C1855.32 483.75 1848.81 505.248 1840.25 525.869C1831.7 546.494 1821.11 566.238 1808.73 584.734C1796.34 603.23 1782.16 620.487 1766.44 636.201C1750.73 651.911 1733.47 666.087 1714.96 678.467C1696.46 690.851 1676.71 701.433 1656.07 709.982C1635.45 718.534 1613.94 725.048 1592.04 729.376C1571.15 733.514 1549.91 735.648 1528.8 735.842V736.132C1516.52 736.153 1504.86 738.486 1493.9 743.021C1482.96 747.544 1472.78 754.334 1464.25 762.865C1455.72 771.391 1448.93 781.572 1444.41 792.501C1439.87 803.455 1437.54 815.113 1437.52 827.393C1437.54 839.673 1439.87 851.332 1444.41 862.286C1448.93 873.218 1455.73 883.395 1464.26 891.922C1472.79 900.448 1482.97 907.243 1493.91 911.761C1504.14 915.994 1514.99 918.305 1526.39 918.612V918.668L3053 918.646V890.98L1526.38 891.002V890.928C1522.89 890.799 1519.52 890.406 1516.23 889.753C1512.2 888.954 1508.3 887.771 1504.51 886.203C1496.94 883.08 1489.81 878.337 1483.83 872.354C1477.85 866.368 1473.1 859.245 1469.98 851.686C1468.41 847.898 1467.22 843.993 1466.43 839.963C1465.63 835.928 1465.21 831.764 1465.2 827.389C1465.21 823.013 1465.63 818.849 1466.43 814.815C1467.22 810.785 1468.41 806.88 1469.98 803.092C1473.1 795.533 1477.85 788.406 1483.83 782.423C1489.82 776.441 1496.94 771.698 1504.51 768.575C1508.3 767.007 1512.2 765.824 1516.23 765.024C1520.27 764.225 1524.43 763.811 1528.81 763.798V763.508C1551.69 763.314 1574.74 761.007 1597.42 756.515C1621.1 751.833 1644.37 744.788 1666.69 735.535C1689 726.287 1710.36 714.841 1730.37 701.455C1750.38 688.069 1769.03 672.743 1786.02 655.759C1803.01 638.771 1818.34 620.124 1831.74 600.12C1845.13 580.125 1856.58 558.77 1865.83 536.46C1875.08 514.154 1882.13 490.898 1886.81 467.219C1891.5 443.544 1893.82 419.463 1893.82 395.589C1893.82 371.716 1891.5 347.635 1886.81 323.96C1882.13 300.285 1875.08 277.024 1865.82 254.719C1856.57 232.409 1845.12 211.058 1831.73 191.059C1818.34 171.059 1803.01 152.408 1786.02 135.424C1769.02 118.44 1750.37 103.114 1730.36 89.7282C1710.35 76.3422 1689 64.8956 1666.68 55.6476C1644.36 46.3954 1621.1 39.3503 1597.41 34.6723C1574.01 30.0419 1550.22 27.7266 1526.62 27.6662V27.9297L0 27.9556V55.6217L1526.62 55.6001V55.6045Z" fill="var(--fill-0, #FEC9D7)"/>
<path id="Vector_3" d="M1526.62 83.2706V83.0071C1546.67 83.0676 1566.84 85.0373 1586.67 88.9594C1606.78 92.9333 1626.53 98.9114 1645.47 106.768C1664.42 114.621 1682.56 124.34 1699.56 135.718C1716.56 147.091 1732.42 160.118 1746.87 174.558C1761.32 189.002 1774.35 204.855 1785.73 221.852C1797.11 238.845 1806.83 256.982 1814.68 275.923C1822.54 294.86 1828.52 314.599 1832.5 334.707C1836.48 354.809 1838.45 375.271 1838.46 395.598C1838.46 415.925 1836.48 436.387 1832.5 456.49C1828.53 476.597 1822.55 496.337 1814.69 515.273C1806.83 534.214 1797.11 552.351 1785.73 569.344C1774.35 586.341 1761.32 602.194 1746.88 616.638C1732.43 631.078 1716.57 644.105 1699.56 655.479C1682.57 666.856 1664.42 676.575 1645.47 684.428C1626.53 692.28 1606.78 698.263 1586.67 702.237C1567.56 706.021 1548.14 707.986 1528.8 708.176V708.465C1512.97 708.483 1497.62 711.528 1483.29 717.463C1468.99 723.381 1455.75 732.227 1444.68 743.298C1433.6 754.368 1424.75 767.599 1418.83 781.901C1412.9 796.22 1409.85 811.562 1409.83 827.393C1409.85 843.22 1412.9 858.567 1418.83 872.886C1424.75 887.188 1433.6 900.418 1444.68 911.489C1455.75 922.56 1468.99 931.406 1483.29 937.324C1496.88 942.956 1511.4 945.98 1526.37 946.291V946.343L3052.99 946.321V918.655L1526.37 918.677V918.62C1514.98 918.314 1504.13 916.003 1493.89 911.77C1482.95 907.247 1472.77 900.457 1464.24 891.93C1455.71 883.404 1448.92 873.227 1444.39 862.295C1439.86 851.34 1437.53 839.682 1437.5 827.402C1437.52 815.122 1439.86 803.463 1444.39 792.509C1448.91 781.577 1455.7 771.4 1464.23 762.873C1472.76 754.347 1482.94 747.552 1493.88 743.03C1504.84 738.494 1516.5 736.166 1528.79 736.14V735.851C1549.89 735.656 1571.13 733.518 1592.02 729.385C1613.92 725.057 1635.43 718.543 1656.06 709.99C1676.69 701.442 1696.44 690.859 1714.94 678.475C1733.45 666.096 1750.7 651.919 1766.43 636.209C1782.14 620.495 1796.32 603.243 1808.71 584.743C1821.09 566.247 1831.68 546.503 1840.23 525.877C1848.79 505.256 1855.31 483.758 1859.64 461.867C1863.97 439.981 1866.12 417.705 1866.12 395.607C1866.12 373.508 1863.97 351.237 1859.63 329.346C1855.3 307.455 1848.79 285.957 1840.23 265.336C1831.68 244.711 1821.09 224.966 1808.7 206.47C1796.32 187.974 1782.14 170.722 1766.42 155.004C1750.7 139.294 1733.45 125.118 1714.94 112.738C1696.44 100.358 1676.68 89.7714 1656.05 81.2232C1635.42 72.6707 1613.92 66.1569 1592.02 61.8288C1570.41 57.5525 1548.42 55.4101 1526.6 55.3496V55.6131L0 55.6217V83.2879L1526.62 83.2663V83.2706Z" fill="var(--fill-0, #FF91AD)"/>
<path id="Vector_4" d="M1526.62 110.937V110.673C1544.89 110.734 1563.25 112.531 1581.29 116.099C1599.62 119.723 1617.61 125.165 1634.87 132.322C1669.41 146.62 1700.96 167.777 1727.3 194.117C1753.65 220.444 1774.81 251.985 1789.11 286.514C1796.27 303.766 1801.72 321.748 1805.34 340.067C1808.97 358.386 1810.77 377.033 1810.78 395.589C1810.77 414.146 1808.97 432.793 1805.34 451.112C1801.72 469.431 1796.27 487.413 1789.11 504.665C1774.81 539.194 1753.65 570.735 1727.3 597.062C1700.96 623.402 1669.41 644.559 1634.87 658.856C1617.61 666.014 1599.62 671.461 1581.29 675.08C1563.97 678.51 1546.36 680.303 1528.8 680.493V680.782C1509.41 680.791 1490.38 684.553 1472.69 691.892C1455.01 699.205 1438.72 710.103 1425.11 723.722C1411.49 737.337 1400.59 753.617 1393.27 771.292C1385.93 788.972 1382.17 808.003 1382.16 827.38C1382.17 846.757 1385.93 865.789 1393.28 883.469C1400.59 901.139 1411.49 917.424 1425.12 931.034C1438.74 944.649 1455.02 955.547 1472.7 962.86C1489.65 969.892 1507.84 973.629 1526.38 973.935V973.987L3053 973.966V946.299L1526.38 946.321V946.269C1511.41 945.963 1496.89 942.935 1483.3 937.302C1469 931.384 1455.76 922.538 1444.69 911.467C1433.61 900.396 1424.76 887.166 1418.84 872.864C1412.91 858.545 1409.86 843.202 1409.84 827.372C1409.86 811.545 1412.91 796.198 1418.84 781.879C1424.76 767.577 1433.61 754.347 1444.69 743.276C1455.76 732.205 1469 723.359 1483.3 717.441C1497.63 711.506 1512.98 708.457 1528.81 708.444V708.154C1548.14 707.96 1567.57 705.995 1586.68 702.215C1606.79 698.241 1626.54 692.259 1645.48 684.406C1664.43 676.553 1682.57 666.834 1699.57 655.457C1716.58 644.084 1732.43 631.056 1746.88 616.616C1761.33 602.172 1774.36 586.32 1785.74 569.323C1797.12 552.33 1806.84 534.192 1814.7 515.252C1822.55 496.315 1828.54 476.575 1832.51 456.468C1836.5 436.365 1838.47 415.904 1838.47 395.576C1838.47 375.249 1836.49 354.788 1832.51 334.685C1828.53 314.578 1822.55 294.838 1814.69 275.901C1806.84 256.961 1797.12 238.823 1785.73 221.83C1774.36 204.833 1761.32 188.981 1746.88 174.537C1732.43 160.097 1716.57 147.073 1699.57 135.696C1682.57 124.318 1664.43 114.6 1645.48 106.747C1626.54 98.8941 1606.79 92.9117 1586.67 88.9378C1566.85 85.0114 1546.67 83.046 1526.63 82.9855V83.249L0 83.2879V110.954L1526.62 110.932V110.937Z" fill="var(--fill-0, #FEC9D7)"/>
<path id="Vector_5" d="M1526.62 138.603V138.339C1543.12 138.4 1559.67 140.024 1575.92 143.242C1592.46 146.512 1608.69 151.423 1624.27 157.881C1655.43 170.783 1683.94 189.888 1707.73 213.68C1731.53 237.463 1750.64 265.954 1763.55 297.11C1770.01 312.682 1774.93 328.901 1778.2 345.436C1781.47 361.967 1783.1 378.808 1783.11 395.589C1783.1 412.371 1781.47 429.212 1778.2 445.743C1774.93 462.278 1770.01 478.497 1763.55 494.069C1750.65 525.225 1731.54 553.716 1707.74 577.499C1683.94 601.295 1655.44 620.4 1624.28 633.302C1608.7 639.76 1592.47 644.676 1575.93 647.945C1560.39 651.021 1544.58 652.641 1528.81 652.835V653.124C1505.88 653.124 1483.15 657.604 1462.1 666.342C1441.05 675.054 1421.71 688.004 1405.55 704.163C1389.38 720.318 1376.43 739.652 1367.71 760.696C1358.97 781.741 1354.49 804.457 1354.49 827.385C1354.49 850.308 1358.97 873.028 1367.71 894.068C1376.43 915.113 1389.38 934.447 1405.55 950.602C1421.71 966.761 1441.05 979.71 1462.1 988.423C1482.41 996.854 1504.28 1001.32 1526.38 1001.62V1001.66L3053 1001.64V973.974L1526.38 973.996V973.944C1507.84 973.637 1489.65 969.901 1472.7 962.869C1455.03 955.556 1438.74 944.658 1425.12 931.043C1411.5 917.428 1400.59 901.148 1393.28 883.477C1385.93 865.798 1382.17 846.766 1382.16 827.389C1382.17 808.012 1385.93 788.98 1393.27 771.301C1400.59 753.625 1411.49 737.345 1425.11 723.73C1438.73 710.115 1455.01 699.217 1472.69 691.9C1490.38 684.561 1509.41 680.799 1528.8 680.791V680.501C1546.36 680.311 1563.97 678.514 1581.29 675.089C1599.62 671.465 1617.61 666.018 1634.87 658.865C1669.41 644.568 1700.96 623.407 1727.3 597.071C1753.65 570.744 1774.81 539.203 1789.11 504.673C1796.27 487.421 1801.72 469.439 1805.34 451.12C1808.97 432.802 1810.77 414.154 1810.78 395.598C1810.77 377.042 1808.97 358.395 1805.34 340.076C1801.72 321.757 1796.27 303.775 1789.11 286.523C1774.81 251.993 1753.64 220.452 1727.3 194.125C1700.96 167.785 1669.41 146.629 1634.87 132.331C1617.61 125.174 1599.62 119.727 1581.29 116.107C1563.25 112.535 1544.89 110.742 1526.62 110.682V110.945L0 110.958V138.625L1526.62 138.603Z" fill="var(--fill-0, #FF91AD)"/>
<path id="Vector_6" d="M1526.62 166.269V166.006C1541.34 166.066 1556.09 167.517 1570.55 170.381C1585.3 173.297 1599.77 177.677 1613.66 183.439C1641.46 194.942 1666.91 211.995 1688.16 233.247C1709.42 254.49 1726.48 279.927 1737.98 307.714C1743.74 321.601 1748.13 336.063 1751.04 350.81C1753.97 365.556 1755.42 380.584 1755.43 395.594C1755.42 410.604 1753.97 425.631 1751.05 440.378C1748.13 455.125 1743.75 469.586 1737.99 483.473C1726.48 511.26 1709.42 536.698 1688.16 557.941C1666.91 579.193 1641.46 596.246 1613.67 607.749C1599.78 613.506 1585.31 617.891 1570.56 620.806C1556.81 623.528 1542.81 624.975 1528.81 625.165V625.454C1515.57 625.463 1502.34 626.741 1489.38 629.311C1476.41 631.877 1463.71 635.721 1451.5 640.784C1427.07 650.891 1404.68 665.893 1385.97 684.6C1367.26 703.299 1352.26 725.687 1342.14 750.101C1337.08 762.303 1333.23 775.007 1330.67 787.969C1328.1 800.932 1326.82 814.15 1326.81 827.385C1326.82 840.619 1328.1 853.841 1330.67 866.8C1333.23 879.762 1337.08 892.462 1342.14 904.668C1352.26 929.082 1367.26 951.47 1385.98 970.169C1404.68 988.872 1427.08 1003.87 1451.5 1013.98C1463.71 1019.04 1476.42 1022.89 1489.38 1025.45C1501.55 1027.86 1513.96 1029.14 1526.39 1029.29V1029.33L3053 1029.31V1001.64L1526.38 1001.66V1001.62C1504.28 1001.32 1482.41 996.854 1462.1 988.423C1441.05 979.711 1421.71 966.765 1405.55 950.602C1389.38 934.447 1376.43 915.113 1367.71 894.069C1358.97 873.024 1354.49 850.308 1354.49 827.385C1354.49 804.461 1358.97 781.741 1367.71 760.696C1376.43 739.652 1389.38 720.318 1405.55 704.163C1421.71 688 1441.05 675.054 1462.1 666.342C1483.15 657.599 1505.88 653.125 1528.81 653.125V652.835C1544.58 652.645 1560.39 651.021 1575.93 647.945C1592.47 644.676 1608.7 639.76 1624.28 633.302C1655.44 620.4 1683.94 601.295 1707.74 577.499C1731.54 553.716 1750.65 525.225 1763.55 494.069C1770.01 478.497 1774.93 462.278 1778.2 445.743C1781.47 429.212 1783.1 412.371 1783.11 395.589C1783.1 378.808 1781.47 361.967 1778.2 345.436C1774.93 328.901 1770.01 312.682 1763.55 297.11C1750.64 265.954 1731.53 237.463 1707.73 213.68C1683.94 189.884 1655.43 170.779 1624.27 157.881C1608.69 151.423 1592.46 146.508 1575.92 143.242C1559.67 140.024 1543.12 138.4 1526.62 138.339V138.603L0 138.625V166.291L1526.62 166.269Z" fill="var(--fill-0, #FEC9D7)"/>
<path id="Vector_7" d="M1526.62 193.935V193.672C1539.57 193.732 1552.5 195.011 1565.18 197.52C1578.15 200.082 1590.85 203.931 1603.06 208.993C1627.49 219.1 1649.88 234.102 1668.59 252.805C1687.3 271.504 1702.31 293.892 1712.42 318.306C1717.48 330.508 1721.33 343.212 1723.9 356.174C1726.46 369.137 1727.75 382.355 1727.75 395.589C1727.75 408.824 1726.47 422.046 1723.9 435.005C1721.33 447.967 1717.48 460.666 1712.42 472.873C1702.31 497.287 1687.3 519.675 1668.59 538.374C1649.89 557.081 1627.49 572.083 1603.07 582.19C1590.86 587.253 1578.15 591.097 1565.19 593.663C1553.21 596.034 1541.02 597.304 1528.8 597.494V597.788C1513.79 597.796 1498.75 599.248 1484 602.172C1469.25 605.088 1454.78 609.468 1440.89 615.23C1413.1 626.737 1387.65 643.79 1366.4 665.038C1345.14 686.281 1328.08 711.718 1316.58 739.505C1310.82 753.392 1306.44 767.854 1303.51 782.6C1300.59 797.347 1299.14 812.374 1299.13 827.385C1299.14 842.395 1300.59 857.422 1303.52 872.169C1306.44 886.916 1310.82 901.377 1316.58 915.264C1328.09 943.051 1345.15 968.489 1366.41 989.727C1387.66 1010.98 1413.1 1028.03 1440.9 1039.54C1454.79 1045.29 1469.26 1049.67 1484.01 1052.59C1497.97 1055.36 1512.18 1056.8 1526.39 1056.96V1056.99L3053 1056.97V1029.31L1526.38 1029.33V1029.29C1513.95 1029.14 1501.55 1027.86 1489.38 1025.45C1476.41 1022.89 1463.71 1019.04 1451.5 1013.98C1427.07 1003.87 1404.68 988.872 1385.97 970.169C1367.26 951.47 1352.25 929.086 1342.14 904.668C1337.08 892.466 1333.23 879.762 1330.66 866.8C1328.1 853.837 1326.81 840.619 1326.81 827.385C1326.81 814.145 1328.09 800.928 1330.66 787.969C1333.23 775.007 1337.08 762.308 1342.14 750.101C1352.25 725.687 1367.26 703.299 1385.97 684.6C1404.67 665.893 1427.07 650.891 1451.49 640.784C1463.7 635.721 1476.41 631.877 1489.37 629.311C1502.34 626.746 1515.56 625.463 1528.8 625.454V625.165C1542.8 624.975 1556.8 623.528 1570.56 620.806C1585.31 617.891 1599.78 613.511 1613.67 607.749C1641.46 596.241 1666.91 579.188 1688.16 557.941C1709.42 536.698 1726.48 511.26 1737.98 483.473C1743.74 469.586 1748.12 455.125 1751.04 440.378C1753.97 425.631 1755.42 410.604 1755.43 395.594C1755.42 380.584 1753.97 365.556 1751.04 350.81C1748.12 336.063 1743.74 321.601 1737.98 307.714C1726.47 279.927 1709.41 254.49 1688.15 233.247C1666.9 211.995 1641.46 194.946 1613.66 183.439C1599.77 177.681 1585.3 173.301 1570.55 170.381C1556.08 167.517 1541.34 166.066 1526.61 166.006V166.269L0 166.291V193.957L1526.62 193.935Z" fill="var(--fill-0, #FF91AD)"/>
<path id="Vector_8" d="M1526.62 221.606V221.342C1549.25 221.455 1571.68 225.925 1592.46 234.556C1613.52 243.268 1632.86 256.213 1649.02 272.377C1665.19 288.532 1678.14 307.865 1686.85 328.91C1695.6 349.954 1700.07 372.67 1700.07 395.594C1700.07 418.517 1695.6 441.238 1686.85 462.282C1678.14 483.326 1665.18 502.66 1649.02 518.815C1632.86 534.979 1613.52 547.924 1592.46 556.636C1572.35 564.99 1550.7 569.444 1528.8 569.824V570.122C1512.02 570.13 1495.17 571.754 1478.63 575.029C1462.09 578.298 1445.87 583.21 1430.29 589.672C1399.12 602.574 1370.62 621.679 1346.83 645.475C1323.02 669.258 1303.91 697.749 1291.01 728.905C1284.55 744.477 1279.64 760.696 1276.37 777.231C1273.09 793.762 1271.47 810.604 1271.46 827.385C1271.47 844.166 1273.09 861.007 1276.37 877.538C1279.64 894.073 1284.55 910.292 1291.01 925.864C1303.92 957.02 1323.03 985.512 1346.84 1009.29C1370.63 1033.09 1399.13 1052.2 1430.3 1065.09C1445.87 1071.55 1462.1 1076.46 1478.64 1079.73C1494.38 1082.85 1510.4 1084.47 1526.39 1084.62V1084.66L3053 1084.63V1056.97L1526.39 1056.99V1056.96C1512.18 1056.8 1497.97 1055.35 1484.01 1052.59C1469.26 1049.67 1454.79 1045.29 1440.9 1039.53C1413.1 1028.03 1387.66 1010.97 1366.41 989.723C1345.15 968.48 1328.09 943.043 1316.58 915.26C1310.82 901.373 1306.44 886.911 1303.52 872.165C1300.6 857.418 1299.14 842.39 1299.13 827.38C1299.14 812.37 1300.59 797.343 1303.51 782.596C1306.43 767.849 1310.81 753.388 1316.58 739.501C1328.08 711.714 1345.14 686.276 1366.4 665.033C1387.65 643.782 1413.1 626.728 1440.89 615.226C1454.78 609.468 1469.25 605.083 1484 602.168C1498.75 599.248 1513.79 597.792 1528.8 597.784V597.49C1541.02 597.3 1553.22 596.03 1565.19 593.658C1578.15 591.093 1590.86 587.248 1603.07 582.186C1627.49 572.078 1649.89 557.077 1668.59 538.369C1687.31 519.67 1702.31 497.283 1712.42 472.869C1717.48 460.666 1721.33 447.963 1723.9 435C1726.46 422.038 1727.75 408.82 1727.75 395.585C1727.75 382.346 1726.47 369.128 1723.9 356.17C1721.33 343.207 1717.48 330.508 1712.42 318.301C1702.31 293.888 1687.3 271.5 1668.59 252.801C1649.88 234.098 1627.49 219.096 1603.06 208.989C1590.86 203.926 1578.15 200.082 1565.18 197.516C1552.5 195.007 1539.57 193.728 1526.62 193.667V193.931L0 193.957V221.623L1526.62 221.601V221.606Z" fill="var(--fill-0, #FEC9D7)"/>
<path id="Vector_9" d="M1526.62 249.272V249.013C1545.7 249.129 1564.43 252.879 1581.86 260.109C1599.54 267.422 1615.83 278.32 1629.45 291.935C1643.07 305.55 1653.97 321.83 1661.29 339.501C1668.63 357.181 1672.39 376.212 1672.4 395.589C1672.39 414.967 1668.63 433.998 1661.29 451.678C1653.98 469.349 1643.08 485.633 1629.46 499.244C1615.84 512.859 1599.55 523.757 1581.87 531.074C1565.11 538.028 1547.14 541.764 1528.81 542.144V542.451C1510.25 542.46 1491.6 544.257 1473.27 547.885C1454.94 551.509 1436.96 556.956 1419.7 564.109C1385.16 578.406 1353.6 599.567 1327.27 625.903C1300.92 652.23 1279.75 683.771 1265.45 718.301C1258.29 735.553 1252.84 753.535 1249.22 771.854C1245.59 790.172 1243.79 808.824 1243.79 827.376C1243.79 845.932 1245.59 864.579 1249.22 882.898C1252.85 901.217 1258.3 919.199 1265.45 936.451C1279.75 970.981 1300.92 1002.52 1327.27 1028.85C1353.6 1055.19 1385.16 1076.35 1419.7 1090.64C1436.96 1097.8 1454.94 1103.25 1473.27 1106.87C1490.8 1110.34 1508.62 1112.13 1526.38 1112.28V1112.32L3053 1112.3V1084.63L1526.38 1084.65V1084.62C1510.4 1084.46 1494.38 1082.84 1478.64 1079.73C1462.1 1076.46 1445.87 1071.55 1430.29 1065.09C1399.13 1052.19 1370.62 1033.08 1346.83 1009.29C1323.03 985.507 1303.92 957.016 1291.01 925.86C1284.55 910.288 1279.63 894.068 1276.36 877.533C1273.09 861.003 1271.46 844.161 1271.45 827.38C1271.46 810.599 1273.09 793.758 1276.36 777.227C1279.63 760.692 1284.55 744.472 1291.01 728.901C1303.91 697.745 1323.02 669.253 1346.82 645.47C1370.62 621.674 1399.12 602.569 1430.28 589.667C1445.86 583.21 1462.09 578.294 1478.63 575.024C1495.16 571.75 1512.01 570.122 1528.8 570.117V569.819C1550.69 569.439 1572.34 564.986 1592.46 556.632C1613.51 547.92 1632.85 534.97 1649.01 518.811C1665.18 502.656 1678.13 483.322 1686.85 462.278C1695.59 441.233 1700.07 418.517 1700.07 395.589C1700.07 372.666 1695.59 349.946 1686.85 328.906C1678.13 307.861 1665.18 288.527 1649.01 272.372C1632.85 256.213 1613.51 243.264 1592.46 234.551C1571.67 225.921 1549.25 221.45 1526.61 221.338V221.601L0 221.623V249.289L1526.62 249.268V249.272Z" fill="var(--fill-0, #FF91AD)"/>
<path id="Vector_10" d="M1526.62 276.938V276.679C1542.14 276.804 1557.2 279.836 1571.26 285.663C1585.57 291.581 1598.8 300.427 1609.88 311.498C1620.95 322.569 1629.8 335.799 1635.72 350.101C1641.66 364.42 1644.71 379.763 1644.72 395.594C1644.71 411.42 1641.66 426.767 1635.72 441.086C1629.8 455.388 1620.95 468.619 1609.88 479.689C1598.8 490.76 1585.57 499.606 1571.26 505.524C1557.86 511.079 1543.56 514.103 1528.8 514.483V514.794C1508.46 514.798 1488 516.772 1467.89 520.755C1447.77 524.728 1428.02 530.711 1409.08 538.564C1390.13 546.416 1371.99 556.135 1354.99 567.513C1337.99 578.886 1322.13 591.913 1307.68 606.353C1293.24 620.798 1280.2 636.65 1268.83 653.647C1257.44 670.64 1247.72 688.777 1239.87 707.718C1232.01 726.655 1226.03 746.395 1222.05 766.502C1218.07 786.605 1216.1 807.066 1216.09 827.393C1216.1 847.721 1218.07 868.182 1222.06 888.285C1226.03 908.392 1232.02 928.132 1239.87 947.068C1247.73 966.009 1257.45 984.147 1268.83 1001.14C1280.21 1018.14 1293.24 1033.99 1307.68 1048.43C1322.13 1062.87 1337.99 1075.9 1355 1087.27C1371.99 1098.65 1390.14 1108.37 1409.09 1116.22C1428.03 1124.08 1447.78 1130.06 1467.89 1134.03C1487.2 1137.85 1506.84 1139.82 1526.37 1139.98V1140.01L3052.99 1139.99V1112.32L1526.37 1112.34V1112.31C1508.61 1112.15 1490.78 1110.36 1473.26 1106.89C1454.93 1103.27 1436.94 1097.83 1419.68 1090.67C1385.14 1076.37 1353.59 1055.21 1327.25 1028.87C1300.91 1002.55 1279.74 971.007 1265.44 936.477C1258.28 919.225 1252.83 901.243 1249.21 882.924C1245.58 864.605 1243.78 845.958 1243.77 827.402C1243.78 808.845 1245.58 790.198 1249.21 771.879C1252.83 753.561 1258.28 735.579 1265.44 718.327C1279.74 683.797 1300.91 652.256 1327.25 625.929C1353.59 599.589 1385.14 578.432 1419.68 564.135C1436.94 556.978 1454.93 551.531 1473.26 547.911C1491.58 544.283 1510.24 542.486 1528.8 542.477V542.17C1547.13 541.79 1565.1 538.054 1581.86 531.1C1599.54 523.787 1615.83 512.889 1629.44 499.269C1643.06 485.655 1653.97 469.374 1661.28 451.704C1668.62 434.02 1672.39 414.992 1672.39 395.615C1672.38 376.238 1668.62 357.207 1661.28 339.527C1653.96 321.856 1643.06 305.572 1629.43 291.961C1615.81 278.346 1599.53 267.448 1581.85 260.135C1564.42 252.905 1545.69 249.155 1526.6 249.039V249.298L0 249.289V276.955L1526.62 276.934V276.938Z" fill="var(--fill-0, #FEC9D7)"/>
<path id="Vector_11" d="M1526.62 304.604V304.349C1538.58 304.479 1549.95 306.799 1560.66 311.226C1571.59 315.748 1581.77 322.539 1590.3 331.065C1598.83 339.592 1605.63 349.769 1610.15 360.701C1614.69 371.655 1617.02 383.314 1617.05 395.594C1617.02 407.874 1614.69 419.532 1610.16 430.486C1605.63 441.419 1598.84 451.596 1590.31 460.122C1581.78 468.649 1571.6 475.443 1560.67 479.966C1550.62 484.125 1539.98 486.423 1528.81 486.795V487.123C1506.7 487.127 1484.42 489.274 1462.52 493.611C1440.62 497.939 1419.12 504.453 1398.49 513.005C1377.86 521.554 1358.11 532.141 1339.6 544.52C1321.1 556.9 1303.84 571.076 1288.12 586.786C1272.4 602.5 1258.22 619.752 1245.84 638.253C1233.45 656.749 1222.87 676.493 1214.31 697.118C1205.76 717.739 1199.24 739.237 1194.91 761.128C1190.57 783.015 1188.43 805.291 1188.43 827.389C1188.43 849.487 1190.58 871.758 1194.92 893.649C1199.25 915.54 1205.76 937.039 1214.32 957.66C1222.87 978.285 1233.46 998.029 1245.84 1016.53C1258.23 1035.02 1272.41 1052.27 1288.13 1067.99C1303.85 1083.7 1321.11 1097.88 1339.61 1110.26C1358.12 1122.64 1377.87 1133.22 1398.5 1141.77C1419.13 1150.32 1440.63 1156.84 1462.53 1161.17C1483.63 1165.34 1505.08 1167.48 1526.39 1167.64V1167.67L3053 1167.65V1139.98L1526.38 1140.01V1139.97C1506.85 1139.82 1487.21 1137.85 1467.9 1134.03C1447.78 1130.05 1428.04 1124.08 1409.09 1116.22C1390.15 1108.37 1372 1098.65 1355 1087.27C1338 1075.9 1322.14 1062.87 1307.69 1048.43C1293.25 1033.98 1280.22 1018.13 1268.84 1001.13C1257.46 984.142 1247.74 966.005 1239.88 947.064C1232.02 928.127 1226.04 908.387 1222.06 888.28C1218.08 868.178 1216.11 847.716 1216.1 827.389C1216.11 807.062 1218.08 786.6 1222.06 766.497C1226.04 746.39 1232.02 726.65 1239.88 707.714C1247.73 688.773 1257.45 670.636 1268.83 653.643C1280.21 636.646 1293.24 620.793 1307.69 606.349C1322.14 591.909 1338 578.882 1355 567.508C1372 556.131 1390.14 546.412 1409.09 538.559C1428.03 530.702 1447.78 524.724 1467.89 520.75C1488 516.768 1508.47 514.798 1528.81 514.789V514.478C1543.56 514.098 1557.87 511.075 1571.27 505.52C1585.58 499.602 1598.81 490.756 1609.89 479.685C1620.96 468.614 1629.81 455.384 1635.73 441.082C1641.67 426.763 1644.71 411.42 1644.73 395.589C1644.71 379.763 1641.67 364.416 1635.73 350.097C1629.81 335.795 1620.96 322.565 1609.89 311.494C1598.81 300.423 1585.58 291.577 1571.27 285.659C1557.21 279.832 1542.15 276.796 1526.63 276.675V276.934L0 276.96V304.626L1526.62 304.604Z" fill="var(--fill-0, #FF91AD)"/>
<path id="Vector_12" d="M1526.62 332.27V332.016C1530.68 332.076 1534.56 332.482 1538.33 333.229C1542.36 334.028 1546.27 335.212 1550.06 336.78C1557.62 339.903 1564.75 344.646 1570.73 350.628C1576.72 356.615 1581.46 363.738 1584.59 371.297C1586.16 375.085 1587.34 378.99 1588.14 383.02C1588.94 387.054 1589.35 391.218 1589.37 395.594C1589.36 399.969 1588.94 404.133 1588.14 408.168C1587.34 412.198 1586.16 416.103 1584.59 419.891C1581.46 427.45 1576.72 434.577 1570.73 440.559C1564.75 446.542 1557.62 451.285 1550.06 454.408C1546.27 455.976 1542.36 457.159 1538.33 457.958C1535.24 458.567 1532.08 458.956 1528.8 459.107V459.453C1504.92 459.457 1480.83 461.777 1457.14 466.463C1433.46 471.146 1410.19 478.191 1387.88 487.443C1365.56 496.691 1344.2 508.137 1324.2 521.523C1304.19 534.909 1285.54 550.235 1268.55 567.219C1251.56 584.207 1236.22 602.855 1222.83 622.858C1209.44 642.853 1197.99 664.208 1188.74 686.518C1179.49 708.824 1172.44 732.08 1167.76 755.759C1163.07 779.434 1160.75 803.515 1160.74 827.389C1160.75 851.263 1163.07 875.344 1167.76 899.019C1172.44 922.694 1179.49 945.954 1188.75 968.26C1198 990.57 1209.45 1011.92 1222.84 1031.92C1236.23 1051.92 1251.56 1070.57 1268.55 1087.55C1285.54 1104.54 1304.2 1119.86 1324.21 1133.25C1344.21 1146.64 1365.57 1158.08 1387.89 1167.33C1410.2 1176.58 1433.47 1183.63 1457.16 1188.31C1480.04 1192.84 1503.3 1195.14 1526.38 1195.3V1195.33L3053 1195.31V1167.65L1526.38 1167.67V1167.63C1505.07 1167.48 1483.62 1165.34 1462.53 1161.16C1440.63 1156.83 1419.12 1150.32 1398.49 1141.77C1377.86 1133.22 1358.11 1122.64 1339.61 1110.25C1321.11 1097.87 1303.84 1083.7 1288.12 1067.99C1272.41 1052.27 1258.23 1035.02 1245.84 1016.52C1233.45 998.025 1222.86 978.281 1214.31 957.655C1205.76 937.034 1199.24 915.536 1194.91 893.645C1190.57 871.758 1188.43 849.483 1188.42 827.385C1188.43 805.286 1190.57 783.015 1194.91 761.124C1199.24 739.233 1205.75 717.735 1214.31 697.114C1222.86 676.488 1233.45 656.744 1245.83 638.248C1258.22 619.748 1272.4 602.496 1288.11 586.782C1303.83 571.072 1321.09 556.895 1339.6 544.516C1358.1 532.136 1377.85 521.549 1398.49 513.001C1419.11 504.449 1440.62 497.935 1462.52 493.607C1484.41 489.27 1506.7 487.127 1528.8 487.119V486.791C1539.97 486.419 1550.61 484.121 1560.66 479.962C1571.6 475.439 1581.78 468.649 1590.31 460.118C1598.84 451.591 1605.63 441.415 1610.15 430.482C1614.69 419.524 1617.02 407.87 1617.04 395.589C1617.02 383.309 1614.69 371.651 1610.15 360.697C1605.63 349.764 1598.83 339.588 1590.3 331.061C1581.77 322.534 1571.59 315.74 1560.65 311.222C1549.95 306.794 1538.58 304.475 1526.61 304.345V304.6L0 304.626V332.292L1526.62 332.27Z" fill="var(--fill-0, #FEC9D7)"/>
<path id="Vector_13" d="M3053 1222.98V1195.31L1526.38 1195.33V1195.3C1503.3 1195.14 1480.04 1192.83 1457.16 1188.31C1433.47 1183.62 1410.2 1176.58 1387.89 1167.33C1365.57 1158.08 1344.21 1146.64 1324.21 1133.25C1304.2 1119.86 1285.54 1104.54 1268.55 1087.55C1251.56 1070.57 1236.23 1051.92 1222.84 1031.92C1209.45 1011.93 1198 990.57 1188.75 968.26C1179.49 945.958 1172.44 922.698 1167.76 899.019C1163.07 875.344 1160.75 851.263 1160.74 827.389C1160.75 803.515 1163.07 779.434 1167.76 755.759C1172.44 732.084 1179.49 708.824 1188.74 686.518C1197.99 664.208 1209.44 642.857 1222.83 622.858C1236.22 602.859 1251.56 584.207 1268.55 567.219C1285.54 550.235 1304.19 534.909 1324.2 521.523C1344.2 508.137 1365.56 496.691 1387.88 487.443C1410.19 478.191 1433.46 471.145 1457.14 466.463C1480.83 461.772 1504.92 459.457 1528.8 459.453V459.107C1532.07 458.956 1535.24 458.567 1538.33 457.958C1542.36 457.159 1546.27 455.976 1550.06 454.408C1557.62 451.285 1564.75 446.542 1570.73 440.559C1576.72 434.573 1581.46 427.45 1584.59 419.891C1586.16 416.103 1587.34 412.198 1588.14 408.168C1588.94 404.133 1589.35 399.969 1589.37 395.594C1589.36 391.218 1588.94 387.054 1588.14 383.02C1587.34 378.99 1586.16 375.085 1584.59 371.297C1581.46 363.738 1576.72 356.611 1570.73 350.628C1564.75 344.646 1557.62 339.903 1550.06 336.78C1546.27 335.212 1542.36 334.028 1538.33 333.229C1534.56 332.482 1530.68 332.076 1526.62 332.016V332.27L0.004321 332.292V359.958L1526.62 359.937V359.69C1528.88 359.746 1530.97 359.971 1532.96 360.369C1535.21 360.813 1537.36 361.466 1539.46 362.334C1543.65 364.062 1547.73 366.748 1551.17 370.187C1554.61 373.629 1557.3 377.703 1559.03 381.892C1559.9 383.996 1560.55 386.143 1560.99 388.389C1561.44 390.639 1561.69 392.993 1561.69 395.594C1561.68 398.194 1561.44 400.548 1560.99 402.799C1560.55 405.045 1559.9 407.191 1559.03 409.295C1557.3 413.485 1554.61 417.554 1551.17 421.001C1547.73 424.439 1543.65 427.13 1539.46 428.854C1537.36 429.726 1535.21 430.374 1532.96 430.819C1530.71 431.264 1528.36 431.51 1525.76 431.519V431.808C1501.1 432.002 1476.24 434.482 1451.78 439.328C1426.3 444.36 1401.28 451.941 1377.28 461.889C1353.28 471.837 1330.31 484.143 1308.81 498.535C1287.3 512.928 1267.24 529.402 1248.98 547.656C1230.72 565.914 1214.24 585.961 1199.84 607.468C1185.44 628.966 1173.13 651.928 1163.18 675.923C1153.23 699.909 1145.65 724.927 1140.61 750.39C1135.57 775.849 1133.08 801.744 1133.07 827.389C1133.08 853.034 1135.57 878.929 1140.61 904.388C1145.65 929.851 1153.23 954.869 1163.18 978.855C1173.13 1002.85 1185.44 1025.81 1199.84 1047.31C1214.24 1068.81 1230.72 1088.85 1248.98 1107.11C1267.25 1125.37 1287.3 1141.84 1308.81 1156.23C1330.32 1170.63 1353.29 1182.93 1377.29 1192.88C1401.29 1202.83 1426.31 1210.41 1451.79 1215.44C1476.45 1220.33 1501.52 1222.81 1526.38 1222.96V1223L3053 1222.97L3053 1222.98Z" fill="var(--fill-0, #FF91AD)"/>
</g>
<defs>
<clipPath id="clip0_0_24">
<rect width="3053" height="1223" fill="white"/>
</clipPath>
</defs>
</svg>
