<svg preserveAspectRatio="none" width="100%" height="100%" overflow="visible" style="display: block;" viewBox="0 0 2297.67 1703.02" fill="none" xmlns="http://www.w3.org/2000/svg">
<g id="Group 1" opacity="0.35">
<g id="Vector">
</g>
<path id="Vector_2" d="M2297.56 1192.31C2297.27 1180.16 2296.69 1167.99 2295.68 1155.83C2293.66 1131.52 2290.14 1107.27 2285.09 1083.44C2280.04 1059.61 2273.49 1036.21 2265.51 1013.54C2249.57 968.164 2227.93 925.765 2201.63 888.036C2175.35 850.285 2144.38 817.173 2109.9 789.963C2075.43 762.747 2037.41 741.465 1997.51 727.229C1977.58 720.097 1957.18 714.739 1936.63 711.168L1928.92 709.905C1926.35 709.524 1923.77 709.181 1921.19 708.838C1919.91 708.669 1918.62 708.489 1917.33 708.342L1913.47 707.923C1910.89 707.662 1908.31 707.368 1905.73 707.166C1895.41 706.274 1885.1 705.882 1874.81 705.833H1835.49V0L1805.91 0V1206.88H1806.88C1807.07 1214.22 1808.03 1221.13 1809.74 1227.79C1811.63 1235.17 1814.47 1242.26 1818.2 1248.83C1821.92 1255.4 1826.53 1261.43 1831.76 1266.47C1836.99 1271.53 1842.78 1275.61 1848.84 1278.57C1854.92 1281.54 1861.26 1283.41 1867.96 1284.19C1869.63 1284.4 1871.34 1284.47 1873.07 1284.56C1874.81 1284.59 1876.56 1284.57 1878.28 1284.49C1878.71 1284.47 1879.13 1284.41 1879.56 1284.39L1880.19 1284.36L1880.83 1284.28L1882.09 1284.15C1882.5 1284.08 1882.92 1284.03 1883.34 1283.98C1883.76 1283.95 1884.16 1283.83 1884.58 1283.78C1884.99 1283.71 1885.41 1283.67 1885.81 1283.57C1886.22 1283.48 1886.63 1283.4 1887.04 1283.34C1887.44 1283.23 1887.85 1283.14 1888.25 1283.05C1894.71 1281.54 1900.89 1278.94 1906.75 1275.24C1912.59 1271.56 1918.09 1266.77 1922.88 1261.12C1927.67 1255.47 1931.74 1248.99 1934.86 1242.1C1937.99 1235.19 1940.19 1227.9 1941.48 1220.29C1941.55 1219.81 1941.63 1219.34 1941.72 1218.86C1941.77 1218.38 1941.84 1217.89 1941.91 1217.41C1942 1216.93 1942.04 1216.44 1942.09 1215.96C1942.14 1215.47 1942.24 1215 1942.26 1214.5C1942.3 1214.01 1942.35 1213.51 1942.41 1213.02L1942.52 1211.53L1942.58 1210.79L1942.61 1210.04C1942.63 1209.54 1942.68 1209.04 1942.69 1208.53C1942.77 1206.51 1942.78 1204.44 1942.76 1202.39C1942.68 1200.35 1942.62 1198.33 1942.44 1196.36C1941.78 1188.46 1940.19 1180.99 1937.68 1173.82C1935.17 1166.67 1931.7 1159.84 1927.41 1153.68C1923.13 1147.51 1918.03 1142.08 1912.45 1137.69C1906.88 1133.29 1900.86 1129.95 1894.61 1127.71C1888.34 1125.48 1881.81 1124.32 1874.8 1124.3H1835.48V1089.42H1874.8C1884.66 1089.45 1894.11 1091.11 1903.18 1094.34C1912.24 1097.57 1920.92 1102.41 1928.91 1108.71C1936.88 1115 1944.15 1122.75 1950.26 1131.55C1956.38 1140.34 1961.36 1150.13 1964.99 1160.47C1968.62 1170.82 1970.93 1181.69 1971.87 1192.99C1972.12 1195.81 1972.23 1198.67 1972.32 1201.55C1972.36 1204.44 1972.34 1207.35 1972.23 1210.22C1972.21 1210.94 1972.14 1211.64 1972.11 1212.36L1972.07 1213.43L1971.98 1214.49C1971.92 1215.2 1971.89 1215.91 1971.82 1216.61C1971.75 1217.32 1971.68 1218.02 1971.62 1218.72C1971.57 1219.43 1971.45 1220.12 1971.38 1220.82C1971.29 1221.51 1971.23 1222.22 1971.11 1222.91C1971.01 1223.6 1970.91 1224.3 1970.83 1224.99C1970.71 1225.67 1970.59 1226.36 1970.48 1227.05C1968.64 1238.04 1965.43 1248.63 1960.92 1258.56C1956.42 1268.48 1950.62 1277.71 1943.78 1285.77C1936.95 1293.82 1929.11 1300.67 1920.7 1305.98C1912.28 1311.29 1903.31 1315.08 1893.98 1317.26C1893.39 1317.38 1892.81 1317.52 1892.23 1317.66C1891.64 1317.76 1891.05 1317.87 1890.46 1318C1889.88 1318.13 1889.28 1318.21 1888.69 1318.31C1888.09 1318.39 1887.51 1318.54 1886.91 1318.59C1886.32 1318.66 1885.72 1318.74 1885.12 1318.83C1884.53 1318.91 1883.92 1318.95 1883.32 1319.02L1882.42 1319.12L1881.51 1319.18C1880.91 1319.21 1880.3 1319.29 1879.7 1319.31C1877.27 1319.44 1874.8 1319.46 1872.35 1319.42C1869.91 1319.31 1867.48 1319.19 1865.08 1318.89C1855.5 1317.79 1846.28 1315.07 1837.51 1310.78C1828.74 1306.5 1820.43 1300.63 1812.98 1293.41C1805.52 1286.2 1798.95 1277.64 1793.61 1268.23C1788.27 1258.82 1784.17 1248.58 1781.42 1237.9C1778.87 1227.95 1777.48 1217.62 1777.28 1206.87H1776.33V0L1746.75 0V1206.88H1747.7C1747.9 1221 1749.72 1234.78 1753.12 1248.02C1756.71 1262 1762.08 1275.38 1769.03 1287.63C1775.98 1299.88 1784.51 1310.99 1794.2 1320.36C1803.89 1329.74 1814.7 1337.39 1826.17 1343C1837.65 1348.6 1849.76 1352.18 1862.22 1353.61C1865.33 1353.98 1868.48 1354.15 1871.63 1354.29C1874.8 1354.35 1877.98 1354.32 1881.12 1354.15C1881.91 1354.11 1882.69 1354.03 1883.48 1353.98L1884.65 1353.9L1885.83 1353.77C1886.61 1353.67 1887.39 1353.62 1888.17 1353.52L1890.49 1353.2C1891.27 1353.13 1892.04 1352.95 1892.81 1352.84C1893.58 1352.71 1894.36 1352.61 1895.12 1352.44L1897.43 1352L1899.72 1351.47C1911.91 1348.63 1923.68 1343.67 1934.66 1336.73C1945.64 1329.81 1955.82 1320.9 1964.69 1310.44C1973.56 1299.98 1981.11 1287.98 1986.99 1275.03C1992.87 1262.08 1997.09 1248.2 1999.5 1233.83L1999.94 1231.13L2000.31 1228.41C2000.46 1227.51 2000.55 1226.59 2000.65 1225.68C2000.75 1224.77 2000.9 1223.87 2000.96 1222.95L2001.23 1220.21C2001.31 1219.29 2001.37 1218.37 2001.44 1217.45L2001.55 1216.07L2001.62 1214.68C2001.66 1213.76 2001.73 1212.84 2001.77 1211.9C2001.91 1208.2 2001.94 1204.45 2001.88 1200.72C2001.77 1196.99 2001.62 1193.28 2001.31 1189.62C2000.09 1174.92 1997.06 1160.65 1992.31 1147.12C1987.55 1133.6 1981.06 1120.84 1973.11 1109.42C1965.16 1097.99 1955.74 1087.93 1945.35 1079.74C1934.96 1071.55 1923.61 1065.21 1911.75 1060.98C1899.88 1056.74 1887.49 1054.58 1874.8 1054.56H1835.47V1019.69H1874.8C1890.34 1019.71 1905.66 1022.36 1920.33 1027.6C1935 1032.84 1949.01 1040.67 1961.81 1050.77C1974.61 1060.86 1986.18 1073.22 1995.96 1087.28C2005.75 1101.34 2013.76 1117.06 2019.63 1133.77C2025.51 1150.48 2029.25 1168.16 2030.75 1186.25C2031.14 1190.76 2031.33 1195.32 2031.46 1199.89C2031.53 1204.46 2031.49 1209.05 2031.31 1213.6C2031.27 1214.74 2031.19 1215.88 2031.14 1217.01L2031.05 1218.71L2030.92 1220.41C2030.82 1221.55 2030.76 1222.68 2030.66 1223.81L2030.33 1227.19C2030.24 1228.32 2030.07 1229.44 2029.95 1230.56C2029.81 1231.68 2029.7 1232.81 2029.52 1233.93L2029.06 1237.28L2028.51 1240.61C2025.54 1258.36 2020.32 1275.54 2013.07 1291.51C2005.82 1307.48 1996.52 1322.24 1985.61 1335.11C1974.7 1347.98 1962.18 1358.94 1948.63 1367.48C1935.08 1376.04 1920.52 1382.19 1905.46 1385.7L1902.64 1386.34L1899.79 1386.89C1898.85 1387.1 1897.9 1387.23 1896.94 1387.39C1895.99 1387.54 1895.05 1387.74 1894.09 1387.84L1891.22 1388.23C1890.26 1388.35 1889.3 1388.42 1888.34 1388.53L1886.9 1388.69L1885.45 1388.79C1884.49 1388.86 1883.53 1388.96 1882.56 1389C1878.7 1389.21 1874.81 1389.25 1870.93 1389.17C1867.06 1389.02 1863.2 1388.79 1859.36 1388.34C1844.02 1386.57 1829.02 1382.16 1814.85 1375.23C1800.68 1368.31 1787.35 1358.87 1775.43 1347.32C1763.5 1335.79 1753.02 1322.14 1744.46 1307.05C1735.89 1291.96 1729.26 1275.43 1724.81 1258.14C1720.56 1241.6 1718.32 1224.38 1718.12 1206.89H1717.18V0L1687.61 0V1206.88H1688.55C1688.75 1227.73 1691.41 1248.41 1696.51 1268.24C1701.8 1288.84 1709.71 1308.51 1719.88 1326.44C1730.06 1344.37 1742.49 1360.55 1756.65 1374.25C1770.8 1387.96 1786.65 1399.18 1803.52 1407.42C1820.39 1415.67 1838.27 1420.93 1856.49 1423.02C1861.04 1423.56 1865.62 1423.83 1870.21 1424.01C1874.8 1424.11 1879.4 1424.06 1883.98 1423.81C1885.12 1423.75 1886.26 1423.64 1887.41 1423.56L1889.12 1423.44L1890.83 1423.26C1891.97 1423.13 1893.11 1423.03 1894.25 1422.89L1897.66 1422.43C1898.8 1422.3 1899.93 1422.07 1901.06 1421.89C1902.19 1421.71 1903.33 1421.54 1904.45 1421.3L1907.83 1420.64L1911.19 1419.88C1929.11 1415.7 1946.47 1408.38 1962.58 1398.2C1978.7 1388.03 1993.56 1375.02 2006.51 1359.75C2019.47 1344.47 2030.5 1326.95 2039.13 1307.95C2047.76 1288.95 2053.97 1268.48 2057.51 1247.36L2058.16 1243.39L2058.72 1239.4C2058.92 1238.08 2059.06 1236.74 2059.22 1235.41C2059.37 1234.07 2059.56 1232.74 2059.67 1231.4L2060.07 1227.38C2060.19 1226.04 2060.27 1224.69 2060.37 1223.35L2060.53 1221.33L2060.63 1219.31C2060.7 1217.96 2060.79 1216.62 2060.84 1215.27C2061.05 1209.87 2061.1 1204.45 2061.01 1199.03C2060.86 1193.63 2060.63 1188.23 2060.18 1182.85C2058.4 1161.37 2053.94 1140.28 2046.94 1120.4C2039.95 1100.5 2030.43 1081.82 2018.81 1065.14C2007.2 1048.45 1993.47 1033.78 1978.26 1021.79C1963.06 1009.78 1946.37 1000.46 1928.9 994.226C1911.43 987.976 1893.18 984.824 1874.8 984.813H1835.47V949.942H1874.8C1896.03 949.948 1917.21 953.601 1937.48 960.853C1957.75 968.088 1977.1 978.906 1994.71 992.811C2012.33 1006.71 2028.21 1023.68 2041.66 1043C2055.12 1062.32 2066.16 1083.96 2074.26 1107.04C2082.39 1130.11 2087.56 1154.6 2089.61 1179.48C2091.68 1204.36 2090.64 1229.64 2086.53 1254.13C2082.42 1278.63 2075.21 1302.4 2065.2 1324.43C2055.2 1346.45 2042.42 1366.73 2027.43 1384.42C2012.44 1402.09 1995.23 1417.16 1976.55 1428.95C1957.87 1440.75 1937.72 1449.26 1916.93 1454.1C1896.16 1458.94 1874.73 1460.17 1853.62 1457.73C1832.52 1455.32 1811.75 1449.21 1792.19 1439.64C1772.62 1430.08 1754.25 1417.07 1737.87 1401.2C1721.48 1385.34 1707.09 1366.61 1695.31 1345.84C1683.51 1325.07 1674.34 1302.26 1668.2 1278.35C1662.25 1255.22 1659.17 1231.1 1658.97 1206.88H1658.02V0L1628.45 0V1206.88H1629.39C1629.59 1234.44 1633.1 1262.03 1639.9 1288.46C1646.88 1315.67 1657.32 1341.62 1670.73 1365.23C1684.13 1388.84 1700.47 1410.11 1719.1 1428.13C1737.71 1446.17 1758.59 1460.96 1780.86 1471.85C1803.12 1482.74 1826.78 1489.69 1850.76 1492.44C1874.73 1495.2 1899.02 1493.82 1922.67 1488.3C1946.32 1482.79 1969.27 1473.11 1990.51 1459.69C2011.76 1446.28 2031.31 1429.15 2048.34 1409.07C2065.38 1388.99 2079.9 1365.94 2091.27 1340.89C2102.65 1315.84 2110.87 1288.78 2115.54 1260.9C2120.22 1233.01 2121.39 1204.37 2119.05 1176.1C2116.72 1147.83 2110.82 1119.94 2101.58 1093.69C2092.35 1067.42 2079.8 1042.81 2064.51 1020.86C2049.22 998.908 2031.18 979.63 2011.16 963.831C1991.14 948.026 1969.12 935.711 1946.04 927.479C1922.97 919.226 1898.86 915.077 1874.79 915.072H1835.46V880.201H1874.79C1901.7 880.201 1928.74 884.851 1954.62 894.106C1980.5 903.34 2005.18 917.146 2027.61 934.856C2050.05 952.556 2070.24 974.137 2087.36 998.729C2104.48 1023.3 2118.55 1050.88 2128.9 1080.33C2139.26 1109.76 2145.87 1141.06 2148.48 1172.73C2149.14 1180.64 2149.51 1188.58 2149.71 1196.52C2149.84 1204.45 2149.78 1212.39 2149.46 1220.33C2149.39 1222.31 2149.26 1224.3 2149.16 1226.28L2149 1229.25L2148.78 1232.22C2148.63 1234.2 2148.5 1236.19 2148.32 1238.16L2147.75 1244.09C2147.57 1246.07 2147.31 1248.04 2147.08 1250.01C2146.85 1251.98 2146.63 1253.95 2146.34 1255.92L2145.5 1261.81L2144.55 1267.68C2139.32 1298.94 2130.1 1329.29 2117.34 1357.36C2104.59 1385.45 2088.32 1411.25 2069.25 1433.74C2050.18 1456.23 2028.29 1475.41 2004.47 1490.44C1980.67 1505.49 1954.92 1516.36 1928.41 1522.53L1923.43 1523.65L1918.43 1524.63C1916.77 1524.98 1915.09 1525.24 1913.42 1525.52C1911.75 1525.78 1910.08 1526.09 1908.4 1526.3L1903.38 1526.97C1901.7 1527.18 1900.02 1527.34 1898.34 1527.52L1895.82 1527.77L1893.3 1527.97C1891.62 1528.09 1889.94 1528.23 1888.25 1528.32C1881.52 1528.69 1874.79 1528.77 1868.06 1528.61C1861.33 1528.37 1854.59 1527.94 1847.88 1527.16C1821.02 1524.08 1794.48 1516.29 1769.51 1504.07C1744.54 1491.87 1721.15 1475.29 1700.31 1455.09C1679.45 1434.91 1661.15 1411.1 1646.14 1384.65C1631.12 1358.21 1619.41 1329.1 1611.58 1298.59C1603.93 1268.86 1600 1237.82 1599.8 1206.9H1598.86V0L1569.29 0V1206.88H1570.23C1570.42 1241.16 1574.77 1275.65 1583.27 1308.68C1591.96 1342.5 1604.93 1374.75 1621.57 1404.03C1638.19 1433.33 1658.45 1459.68 1681.54 1482.02C1704.61 1504.38 1730.52 1522.74 1758.19 1536.27C1785.85 1549.81 1815.28 1558.45 1845.02 1561.86C1852.45 1562.73 1859.9 1563.21 1867.35 1563.46C1874.79 1563.64 1882.23 1563.55 1889.68 1563.14C1891.54 1563.04 1893.4 1562.88 1895.26 1562.74L1898.05 1562.53L1900.84 1562.25C1902.7 1562.05 1904.56 1561.87 1906.42 1561.64L1911.99 1560.9C1913.84 1560.66 1915.7 1560.32 1917.55 1560.03C1919.4 1559.72 1921.25 1559.42 1923.09 1559.05L1928.63 1557.96L1934.14 1556.72C1963.52 1549.88 1992.06 1537.83 2018.43 1521.16C2044.81 1504.51 2069.04 1483.27 2090.16 1458.38C2111.27 1433.48 2129.28 1404.91 2143.4 1373.81C2157.54 1342.71 2167.76 1309.06 2173.56 1274.42L2174.61 1267.92L2175.54 1261.39C2175.85 1259.22 2176.1 1257.04 2176.37 1254.85C2176.62 1252.67 2176.91 1250.49 2177.11 1248.3L2177.74 1241.73C2177.93 1239.54 2178.08 1237.35 2178.25 1235.16L2178.49 1231.87L2178.67 1228.57C2178.79 1226.38 2178.92 1224.19 2179 1221.99C2179.35 1213.21 2179.43 1204.44 2179.28 1195.66C2179.06 1186.89 2178.65 1178.1 2177.92 1169.34C2175.03 1134.27 2167.7 1099.57 2156.22 1066.96C2144.75 1034.32 2129.17 1003.78 2110.21 976.576C2091.26 949.355 2068.91 925.465 2044.07 905.866C2019.23 886.255 1991.88 870.952 1963.19 860.716C1934.52 850.454 1904.54 845.315 1874.79 845.315H1835.46V810.444H1874.79C1907.38 810.444 1940.3 816.079 1971.77 827.343C2003.25 838.58 2033.28 855.376 2060.52 876.886C2087.77 898.391 2112.27 924.583 2133.06 954.439C2153.86 984.279 2170.95 1017.78 2183.54 1053.6C2196.14 1089.4 2204.19 1127.5 2207.35 1165.96C2208.16 1175.57 2208.61 1185.21 2208.85 1194.83C2209.02 1204.44 2208.93 1214.05 2208.55 1223.67C2208.45 1226.08 2208.31 1228.49 2208.18 1230.89L2207.98 1234.5L2207.71 1238.11C2207.53 1240.52 2207.36 1242.92 2207.15 1245.33L2206.45 1252.53C2206.23 1254.93 2205.92 1257.33 2205.65 1259.72C2205.36 1262.12 2205.08 1264.51 2204.74 1266.9L2203.72 1274.06L2202.57 1281.19C2196.2 1319.21 2184.98 1356.16 2169.47 1390.28C2153.97 1424.42 2134.22 1455.74 2111.07 1483.04C2087.91 1510.34 2061.34 1533.63 2032.39 1551.91C2003.46 1570.2 1972.12 1583.43 1939.88 1590.93L1933.82 1592.29L1927.75 1593.49C1925.73 1593.9 1923.7 1594.22 1921.67 1594.56C1919.63 1594.89 1917.6 1595.25 1915.57 1595.51L1909.46 1596.33C1907.42 1596.58 1905.38 1596.78 1903.34 1597L1900.28 1597.31L1897.22 1597.55C1895.18 1597.7 1893.13 1597.87 1891.09 1597.98C1882.93 1598.43 1874.78 1598.53 1866.63 1598.33C1858.47 1598.05 1850.3 1597.53 1842.15 1596.57C1809.53 1592.84 1777.21 1583.36 1746.85 1568.49C1716.48 1553.65 1688.06 1533.5 1662.75 1508.98C1637.43 1484.47 1615.22 1455.57 1596.98 1423.44C1578.74 1391.32 1564.49 1355.92 1554.96 1318.8C1545.61 1282.47 1540.83 1244.52 1540.64 1206.89H1539.71V0L1510.13 0V1206.88H1511.06C1511.26 1247.87 1516.46 1289.27 1526.66 1328.9C1537.03 1369.33 1552.55 1407.87 1572.41 1442.83C1592.26 1477.8 1616.43 1509.24 1643.98 1535.91C1671.52 1562.59 1702.45 1584.53 1735.53 1600.69C1768.58 1616.88 1803.78 1627.21 1839.28 1631.26C1848.16 1632.3 1857.04 1632.88 1865.92 1633.18C1874.79 1633.4 1883.64 1633.29 1892.53 1632.79C1894.75 1632.68 1896.97 1632.49 1899.18 1632.33L1902.51 1632.07L1905.84 1631.74C1908.06 1631.5 1910.28 1631.29 1912.5 1631.01L1919.14 1630.12C1921.36 1629.84 1923.57 1629.44 1925.78 1629.09C1928 1628.72 1930.21 1628.36 1932.41 1627.92L1939.02 1626.62L1945.61 1625.13C1980.72 1616.96 2014.85 1602.55 2046.35 1582.64C2077.87 1562.75 2106.78 1537.4 2131.98 1507.7C2157.17 1477.99 2178.67 1443.9 2195.54 1406.74C2212.42 1369.6 2224.65 1329.35 2231.58 1287.96L2232.83 1280.19L2233.94 1272.39C2234.31 1269.79 2234.61 1267.19 2234.93 1264.58C2235.23 1261.97 2235.57 1259.36 2235.81 1256.75L2236.56 1248.91C2236.79 1246.3 2236.98 1243.68 2237.18 1241.06L2237.46 1237.14L2237.68 1233.21C2237.82 1230.59 2237.98 1227.98 2238.07 1225.36C2238.49 1214.89 2238.59 1204.45 2238.4 1193.99C2238.15 1183.52 2237.65 1173.05 2236.78 1162.58C2233.34 1120.73 2224.57 1079.22 2210.84 1040.25C2197.14 1001.24 2178.53 964.773 2155.9 932.303C2133.28 899.817 2106.62 871.316 2076.96 847.911C2047.31 824.496 2014.62 806.208 1980.33 793.97C1946.06 781.704 1910.22 775.563 1874.78 775.574H1835.46V740.703H1874.78C1884.36 740.747 1893.95 741.117 1903.55 741.944C1905.95 742.129 1908.35 742.407 1910.75 742.652L1914.35 743.039C1915.55 743.175 1916.74 743.344 1917.94 743.501C1920.34 743.823 1922.74 744.138 1925.13 744.492L1932.3 745.668C1951.41 748.989 1970.38 753.971 1988.91 760.602C2026 773.837 2061.36 793.621 2093.42 818.937C2125.49 844.242 2154.3 875.051 2178.75 910.172C2203.22 945.271 2223.34 984.71 2238.17 1026.89C2253.01 1069.05 2262.49 1113.96 2266.22 1159.21C2267.16 1170.52 2267.7 1181.84 2267.97 1193.15C2268.17 1204.45 2268.07 1215.73 2267.61 1227.04C2267.5 1229.87 2267.34 1232.7 2267.19 1235.53L2266.95 1239.77L2266.65 1244.01C2266.43 1246.85 2266.23 1249.67 2265.98 1252.5L2265.16 1260.97C2264.9 1263.8 2264.54 1266.62 2264.21 1269.43C2263.87 1272.25 2263.54 1275.07 2263.14 1277.88L2261.94 1286.32L2260.59 1294.72C2253.09 1339.5 2239.87 1383.04 2221.61 1423.2C2203.36 1463.39 2180.12 1500.24 2152.89 1532.35C2125.65 1564.46 2094.4 1591.86 2060.31 1613.38C2026.25 1634.91 1989.32 1650.51 1951.35 1659.34L1944.22 1660.94L1937.07 1662.35C1934.69 1662.83 1932.29 1663.22 1929.9 1663.61C1927.51 1664 1925.12 1664.43 1922.73 1664.74L1915.54 1665.7C1913.14 1665.99 1910.74 1666.23 1908.34 1666.48L1904.75 1666.84L1901.15 1667.13C1898.75 1667.3 1896.35 1667.5 1893.95 1667.63C1884.35 1668.16 1874.79 1668.29 1865.2 1668.04C1855.61 1667.73 1846.01 1667.09 1836.42 1665.98C1798.05 1661.59 1759.96 1650.41 1724.2 1632.9C1688.42 1615.42 1654.98 1591.7 1625.21 1562.85C1595.42 1534.02 1569.3 1500.04 1547.83 1462.23C1526.36 1424.44 1509.58 1382.75 1498.36 1339.01C1492.73 1317.15 1488.51 1294.8 1485.69 1272.26L1484.69 1263.8C1484.39 1260.98 1484.13 1258.16 1483.85 1255.33C1483.72 1253.92 1483.58 1252.51 1483.46 1251.09L1483.13 1246.85C1482.93 1244.03 1482.69 1241.19 1482.53 1238.36C1481.88 1227.86 1481.57 1217.36 1481.5 1206.88H1480.56V0L1450.99 0V705.833H851.242V740.703H1451.01V775.574H851.242V810.444H1451.01V845.315H851.242V880.185H1451.01V915.056H851.242V949.926H1451.01V984.797H851.242V1019.67H1451.01V1054.54H851.242V1089.41H1451.01V1124.28H851.242V1159.15H1451.01V1206.86H1451.95C1452.02 1218.18 1452.36 1229.53 1453.06 1240.88C1453.23 1243.92 1453.48 1246.96 1453.7 1250L1454.06 1254.56C1454.18 1256.08 1454.34 1257.6 1454.48 1259.12C1454.77 1262.15 1455.06 1265.19 1455.38 1268.23L1456.45 1277.32C1459.48 1301.55 1464.03 1325.6 1470.08 1349.11C1482.15 1396.14 1500.19 1440.98 1523.28 1481.61C1546.36 1522.27 1574.44 1558.79 1606.46 1589.78C1638.46 1620.78 1674.42 1646.3 1712.9 1665.1C1732.13 1674.51 1751.98 1682.23 1772.18 1688.18C1792.39 1694.14 1812.95 1698.29 1833.58 1700.67C1843.9 1701.87 1854.22 1702.55 1864.52 1702.88C1874.81 1703.15 1885.09 1703.02 1895.41 1702.44C1897.98 1702.3 1900.56 1702.09 1903.15 1701.9L1907.01 1701.6L1910.88 1701.21C1913.47 1700.94 1916.04 1700.68 1918.62 1700.37L1926.35 1699.33C1928.92 1699 1931.5 1698.55 1934.06 1698.13C1936.63 1697.71 1939.2 1697.28 1941.77 1696.77L1949.46 1695.25L1957.12 1693.54C1997.96 1684.03 2037.69 1667.26 2074.31 1644.11C2110.96 1620.97 2144.56 1591.52 2173.83 1557C2203.11 1522.48 2228.09 1482.88 2247.71 1439.65C2267.35 1396.46 2281.57 1349.63 2289.63 1301.48L2291.08 1292.44L2292.37 1283.38C2292.81 1280.35 2293.16 1277.32 2293.53 1274.29C2293.88 1271.26 2294.26 1268.23 2294.55 1265.19L2295.42 1256.08C2295.69 1253.04 2295.91 1250 2296.14 1246.96L2296.47 1242.4L2296.73 1237.84C2296.89 1234.8 2297.06 1231.75 2297.18 1228.71C2297.67 1216.55 2297.78 1204.42 2297.56 1192.29V1192.31ZM1874.81 1159.17C1878.97 1159.19 1882.57 1159.86 1886.04 1161.09C1889.49 1162.32 1892.83 1164.17 1896.01 1166.67C1899.17 1169.16 1902.12 1172.29 1904.57 1175.82C1907.02 1179.35 1908.97 1183.21 1910.36 1187.18C1911.76 1191.17 1912.63 1195.23 1913.01 1199.74C1913.12 1200.87 1913.14 1202.04 1913.2 1203.23C1913.2 1204.44 1913.2 1205.68 1913.16 1206.85C1913.16 1207.15 1913.11 1207.43 1913.1 1207.72L1913.1 1208.16L1913.05 1208.58C1913.02 1208.87 1913.02 1209.15 1912.99 1209.44C1912.95 1209.72 1912.92 1209.99 1912.91 1210.28C1912.91 1210.56 1912.83 1210.83 1912.81 1211.1C1912.78 1211.38 1912.77 1211.66 1912.71 1211.92C1912.66 1212.19 1912.63 1212.46 1912.61 1212.73C1912.55 1212.99 1912.5 1213.26 1912.46 1213.53C1911.75 1217.76 1910.54 1221.75 1908.78 1225.63C1907.03 1229.5 1904.71 1233.21 1901.96 1236.46C1899.21 1239.71 1896.06 1242.44 1892.78 1244.5C1889.49 1246.57 1886.1 1248 1882.51 1248.84C1882.28 1248.89 1882.06 1248.94 1881.84 1249.01C1881.61 1249.04 1881.37 1249.08 1881.15 1249.13C1880.92 1249.2 1880.69 1249.21 1880.46 1249.25C1880.22 1249.28 1880 1249.37 1879.75 1249.37C1879.52 1249.39 1879.28 1249.42 1879.04 1249.47C1878.8 1249.5 1878.56 1249.5 1878.32 1249.53L1877.96 1249.59L1877.59 1249.6C1877.34 1249.61 1877.1 1249.65 1876.85 1249.67C1875.86 1249.71 1874.81 1249.71 1873.78 1249.71C1872.77 1249.64 1871.78 1249.62 1870.82 1249.49C1867 1249.04 1863.55 1248.01 1860.17 1246.37C1856.81 1244.73 1853.53 1242.43 1850.54 1239.53C1847.54 1236.65 1844.88 1233.17 1842.77 1229.44C1840.66 1225.7 1839.09 1221.76 1838.04 1217.69C1837 1213.59 1836.43 1209.36 1836.41 1204.45H1835.49V1159.17H1874.81H1874.81Z" fill="var(--fill-0, #FF91AD)"/>
<path id="Vector_3" d="M1451.01 740.703L3.62387e-06 740.703L0 775.573L1451.01 775.573L1451.01 740.703Z" fill="var(--fill-0, #FEC9D7)"/>
<path id="Vector_4" d="M1451.01 810.45L1.12533e-05 810.45L7.6294e-06 845.32L1451.01 845.32L1451.01 810.45Z" fill="var(--fill-0, #FEC9D7)"/>
<path id="Vector_5" d="M1451.01 880.19L1.12533e-05 880.191L7.6294e-06 915.061L1451.01 915.061L1451.01 880.19Z" fill="var(--fill-0, #FEC9D7)"/>
<path id="Vector_6" d="M1451.01 949.931L1.88827e-05 949.932L1.52588e-05 984.802L1451.01 984.802L1451.01 949.931Z" fill="var(--fill-0, #FEC9D7)"/>
<path id="Vector_7" d="M1451.01 1019.68L2.65121e-05 1019.68L2.28882e-05 1054.55L1451.01 1054.55L1451.01 1019.68Z" fill="var(--fill-0, #FEC9D7)"/>
<path id="Vector_8" d="M1451.01 1089.42L3.41415e-05 1089.42L3.05176e-05 1124.29L1451.01 1124.29L1451.01 1089.42Z" fill="var(--fill-0, #FEC9D7)"/>
<path id="Vector_9" d="M1776.34 1206.88H1777.29C1777.49 1217.62 1778.88 1227.96 1781.43 1237.91C1784.18 1248.59 1788.28 1258.82 1793.62 1268.24C1798.96 1277.64 1805.53 1286.21 1812.99 1293.42C1820.45 1300.63 1828.75 1306.5 1837.52 1310.78C1846.29 1315.07 1855.52 1317.79 1865.1 1318.9C1867.49 1319.19 1869.92 1319.31 1872.36 1319.43C1874.81 1319.47 1877.28 1319.45 1879.71 1319.32C1880.32 1319.29 1880.92 1319.22 1881.52 1319.18L1882.43 1319.13L1883.33 1319.03C1883.94 1318.95 1884.54 1318.92 1885.14 1318.84C1885.73 1318.75 1886.33 1318.67 1886.92 1318.6C1887.52 1318.54 1888.11 1318.4 1888.7 1318.31C1889.29 1318.21 1889.89 1318.14 1890.47 1318C1891.06 1317.88 1891.65 1317.77 1892.24 1317.66C1892.82 1317.52 1893.41 1317.39 1893.99 1317.26C1903.31 1315.08 1912.29 1311.3 1920.71 1305.99C1929.12 1300.68 1936.96 1293.83 1943.79 1285.78C1950.62 1277.72 1956.43 1268.48 1960.93 1258.56C1965.44 1248.63 1968.65 1238.05 1970.5 1227.06C1970.6 1226.36 1970.72 1225.68 1970.84 1224.99C1970.93 1224.3 1971.02 1223.6 1971.12 1222.91C1971.24 1222.22 1971.3 1221.52 1971.39 1220.82C1971.46 1220.12 1971.58 1219.43 1971.63 1218.73C1971.69 1218.02 1971.76 1217.32 1971.84 1216.62C1971.9 1215.91 1971.93 1215.2 1971.99 1214.5L1972.08 1213.43L1972.13 1212.36C1972.15 1211.65 1972.22 1210.93 1972.24 1210.22C1972.35 1207.36 1972.37 1204.45 1972.33 1201.55C1972.24 1198.67 1972.14 1195.81 1971.89 1192.99C1970.95 1181.69 1968.64 1170.82 1965 1160.47C1961.37 1150.14 1956.39 1140.34 1950.27 1131.55C1944.16 1122.75 1936.9 1115.01 1928.92 1108.72C1920.93 1102.42 1912.25 1097.58 1903.19 1094.35C1894.12 1091.11 1884.67 1089.45 1874.82 1089.43H1835.49V1124.3H1874.82C1881.83 1124.32 1888.35 1125.49 1894.62 1127.72C1900.88 1129.95 1906.89 1133.3 1912.47 1137.69C1918.03 1142.08 1923.15 1147.52 1927.43 1153.69C1931.72 1159.85 1935.18 1166.68 1937.69 1173.83C1940.21 1180.99 1941.8 1188.47 1942.46 1196.37C1942.63 1198.34 1942.69 1200.36 1942.77 1202.39C1942.79 1204.45 1942.78 1206.51 1942.7 1208.53C1942.69 1209.04 1942.64 1209.54 1942.62 1210.04L1942.59 1210.79L1942.53 1211.54L1942.42 1213.03C1942.36 1213.52 1942.32 1214.01 1942.28 1214.5C1942.25 1215 1942.15 1215.48 1942.1 1215.97C1942.04 1216.45 1942.01 1216.95 1941.92 1217.42C1941.85 1217.9 1941.79 1218.38 1941.73 1218.87C1941.64 1219.34 1941.56 1219.82 1941.49 1220.3C1940.21 1227.92 1938 1235.2 1934.87 1242.1C1931.74 1249 1927.68 1255.47 1922.89 1261.13C1918.1 1266.77 1912.6 1271.57 1906.76 1275.25C1900.9 1278.94 1894.72 1281.54 1888.27 1283.06C1887.86 1283.14 1887.45 1283.23 1887.05 1283.34C1886.64 1283.41 1886.23 1283.49 1885.82 1283.57C1885.42 1283.68 1885 1283.72 1884.59 1283.78C1884.18 1283.84 1883.77 1283.96 1883.35 1283.99C1882.93 1284.04 1882.51 1284.09 1882.1 1284.16L1880.84 1284.29L1880.2 1284.36L1879.57 1284.39C1879.14 1284.42 1878.72 1284.48 1878.29 1284.49C1876.58 1284.58 1874.82 1284.59 1873.08 1284.57C1871.35 1284.48 1869.64 1284.41 1867.97 1284.2C1861.27 1283.42 1854.93 1281.54 1848.85 1278.58C1842.79 1275.62 1837 1271.54 1831.77 1266.48C1826.54 1261.43 1821.93 1255.41 1818.21 1248.84C1814.48 1242.26 1811.64 1235.17 1809.75 1227.8C1808.04 1221.13 1807.08 1214.23 1806.89 1206.88H1805.93V0L1776.35 0V1206.88H1776.34Z" fill="var(--fill-0, #FEC9D7)"/>
<path id="Vector_10" d="M1717.18 1206.88H1718.13C1718.33 1224.37 1720.57 1241.59 1724.82 1258.13C1729.25 1275.42 1735.89 1291.95 1744.46 1307.04C1753.02 1322.13 1763.51 1335.77 1775.43 1347.31C1787.35 1358.85 1800.68 1368.29 1814.86 1375.22C1829.03 1382.15 1844.02 1386.56 1859.36 1388.33C1863.2 1388.78 1867.06 1389.01 1870.93 1389.16C1874.81 1389.24 1878.7 1389.2 1882.56 1388.99C1883.53 1388.94 1884.49 1388.84 1885.45 1388.78L1886.9 1388.68L1888.34 1388.52C1889.3 1388.41 1890.26 1388.34 1891.22 1388.22L1894.09 1387.83C1895.05 1387.73 1896 1387.53 1896.95 1387.38C1897.9 1387.22 1898.85 1387.08 1899.8 1386.88L1902.64 1386.33L1905.47 1385.69C1920.52 1382.18 1935.09 1376.03 1948.63 1367.47C1962.18 1358.93 1974.7 1347.97 1985.61 1335.1C1996.52 1322.23 2005.82 1307.47 2013.07 1291.5C2020.33 1275.53 2025.54 1258.35 2028.51 1240.6L2029.06 1237.27L2029.52 1233.92C2029.7 1232.8 2029.82 1231.68 2029.95 1230.55C2030.07 1229.42 2030.24 1228.31 2030.33 1227.18L2030.66 1223.8C2030.76 1222.67 2030.83 1221.53 2030.92 1220.4L2031.05 1218.7L2031.14 1217C2031.2 1215.86 2031.28 1214.73 2031.32 1213.59C2031.5 1209.04 2031.53 1204.45 2031.46 1199.88C2031.33 1195.32 2031.14 1190.76 2030.75 1186.23C2029.26 1168.15 2025.51 1150.47 2019.63 1133.76C2013.77 1117.05 2005.76 1101.33 1995.97 1087.27C1986.19 1073.21 1974.61 1060.85 1961.81 1050.76C1949.01 1040.65 1935 1032.83 1920.33 1027.59C1905.66 1022.35 1890.34 1019.69 1874.8 1019.68H1835.48V1054.55H1874.8C1887.5 1054.57 1899.88 1056.73 1911.75 1060.97C1923.62 1065.2 1934.97 1071.53 1945.35 1079.73C1955.74 1087.93 1965.16 1097.98 1973.11 1109.4C1981.07 1120.83 1987.56 1133.58 1992.31 1147.11C1997.06 1160.64 2000.09 1174.91 2001.31 1189.6C2001.63 1193.28 2001.77 1196.99 2001.88 1200.71C2001.94 1204.44 2001.91 1208.19 2001.77 1211.89C2001.74 1212.82 2001.66 1213.74 2001.62 1214.67L2001.55 1216.06L2001.44 1217.44C2001.36 1218.36 2001.32 1219.28 2001.23 1220.2L2000.97 1222.94C2000.9 1223.86 2000.75 1224.76 2000.66 1225.67C2000.55 1226.58 2000.46 1227.5 2000.32 1228.4L1999.94 1231.12L1999.5 1233.82C1997.09 1248.19 1992.88 1262.07 1986.99 1275.02C1981.12 1287.97 1973.57 1299.97 1964.7 1310.43C1955.82 1320.89 1945.65 1329.79 1934.67 1336.72C1923.68 1343.66 1911.91 1348.62 1899.72 1351.46L1897.43 1351.99L1895.13 1352.43C1894.36 1352.6 1893.59 1352.7 1892.81 1352.83C1892.04 1352.94 1891.28 1353.12 1890.5 1353.19L1888.17 1353.51C1887.39 1353.61 1886.61 1353.67 1885.83 1353.75L1884.66 1353.89L1883.48 1353.97C1882.69 1354.02 1881.91 1354.1 1881.12 1354.14C1877.98 1354.31 1874.8 1354.34 1871.63 1354.28C1868.48 1354.15 1865.33 1353.97 1862.22 1353.6C1849.76 1352.16 1837.65 1348.59 1826.18 1342.99C1814.71 1337.38 1803.89 1329.73 1794.2 1320.35C1784.51 1310.98 1775.98 1299.87 1769.04 1287.62C1762.08 1275.37 1756.71 1261.99 1753.12 1248.01C1749.72 1234.77 1747.9 1220.99 1747.7 1206.87H1746.75V0L1717.18 0V1206.88H1717.18Z" fill="var(--fill-0, #FEC9D7)"/>
<path id="Vector_11" d="M1658.04 1206.88H1658.98C1659.18 1231.09 1662.26 1255.22 1668.21 1278.35C1674.35 1302.25 1683.52 1325.06 1695.32 1345.83C1707.1 1366.6 1721.5 1385.33 1737.88 1401.19C1754.27 1417.06 1772.63 1430.07 1792.2 1439.63C1811.77 1449.21 1832.53 1455.31 1853.63 1457.73C1874.73 1460.16 1896.17 1458.94 1916.94 1454.09C1937.73 1449.25 1957.89 1440.74 1976.56 1428.94C1995.24 1417.15 2012.44 1402.09 2027.44 1384.41C2042.43 1366.73 2055.21 1346.45 2065.21 1324.42C2075.22 1302.4 2082.43 1278.63 2086.54 1254.12C2090.65 1229.63 2091.69 1204.36 2089.62 1179.47C2087.57 1154.59 2082.39 1130.1 2074.28 1107.04C2066.17 1083.96 2055.13 1062.31 2041.67 1043C2028.22 1023.67 2012.34 1006.7 1994.72 992.805C1977.11 978.9 1957.76 968.083 1937.49 960.847C1917.22 953.595 1896.03 949.948 1874.81 949.937H1835.49V984.807H1874.81C1893.19 984.818 1911.44 987.971 1928.91 994.221C1946.38 1000.45 1963.07 1009.78 1978.27 1021.78C1993.48 1033.77 2007.21 1048.44 2018.82 1065.13C2030.45 1081.82 2039.97 1100.5 2046.95 1120.39C2053.95 1140.28 2058.41 1161.36 2060.19 1182.85C2060.64 1188.22 2060.88 1193.62 2061.02 1199.03C2061.11 1204.44 2061.07 1209.86 2060.85 1215.26C2060.8 1216.61 2060.71 1217.96 2060.64 1219.31L2060.54 1221.33L2060.39 1223.34C2060.28 1224.69 2060.2 1226.03 2060.08 1227.38L2059.68 1231.39C2059.57 1232.74 2059.38 1234.07 2059.23 1235.4C2059.08 1236.74 2058.93 1238.07 2058.73 1239.4L2058.17 1243.38L2057.52 1247.35C2053.98 1268.48 2047.77 1288.95 2039.14 1307.95C2030.51 1326.95 2019.48 1344.47 2006.53 1359.74C1993.57 1375.01 1978.71 1388.03 1962.6 1398.2C1946.48 1408.38 1929.12 1415.7 1911.2 1419.87L1907.84 1420.64L1904.46 1421.3C1903.34 1421.54 1902.2 1421.7 1901.07 1421.89C1899.94 1422.06 1898.81 1422.29 1897.67 1422.42L1894.26 1422.89C1893.13 1423.03 1891.98 1423.13 1890.84 1423.25L1889.13 1423.43L1887.42 1423.56C1886.28 1423.63 1885.14 1423.75 1883.99 1423.8C1879.41 1424.05 1874.81 1424.1 1870.22 1424C1865.64 1423.83 1861.06 1423.56 1856.5 1423.02C1838.28 1420.93 1820.4 1415.67 1803.53 1407.41C1786.66 1399.17 1770.81 1387.94 1756.66 1374.24C1742.51 1360.55 1730.07 1344.36 1719.89 1326.43C1709.71 1308.5 1701.81 1288.83 1696.52 1268.23C1691.42 1248.4 1688.76 1227.73 1688.56 1206.87H1687.62V0L1658.05 0V1206.88H1658.04Z" fill="var(--fill-0, #FEC9D7)"/>
<path id="Vector_12" d="M1598.89 1206.88H1599.83C1600.03 1237.8 1603.95 1268.84 1611.6 1298.57C1619.44 1329.08 1631.14 1358.19 1646.17 1384.63C1661.18 1411.08 1679.48 1434.89 1700.34 1455.07C1721.18 1475.26 1744.57 1491.85 1769.54 1504.05C1794.5 1516.27 1821.05 1524.07 1847.91 1527.14C1854.62 1527.92 1861.35 1528.35 1868.08 1528.59C1874.81 1528.75 1881.54 1528.67 1888.28 1528.3C1889.96 1528.21 1891.64 1528.06 1893.32 1527.94L1895.84 1527.75L1898.36 1527.5C1900.04 1527.32 1901.73 1527.16 1903.4 1526.95L1908.43 1526.28C1910.11 1526.07 1911.78 1525.75 1913.45 1525.49C1915.12 1525.22 1916.79 1524.95 1918.46 1524.61L1923.45 1523.63L1928.43 1522.51C1954.94 1516.34 1980.69 1505.47 2004.5 1490.42C2028.31 1475.39 2050.2 1456.21 2069.27 1433.72C2088.35 1411.23 2104.61 1385.42 2117.36 1357.34C2130.12 1329.27 2139.34 1298.91 2144.58 1267.65L2145.53 1261.78L2146.36 1255.89C2146.65 1253.93 2146.87 1251.96 2147.11 1249.99C2147.34 1248.02 2147.6 1246.05 2147.77 1244.07L2148.35 1238.14C2148.52 1236.16 2148.66 1234.18 2148.81 1232.2L2149.03 1229.23L2149.19 1226.26C2149.29 1224.27 2149.41 1222.29 2149.49 1220.3C2149.81 1212.37 2149.87 1204.43 2149.73 1196.5C2149.53 1188.56 2149.17 1180.62 2148.5 1172.71C2145.89 1141.04 2139.28 1109.74 2128.92 1080.31C2118.57 1050.86 2104.51 1023.28 2087.38 998.707C2070.27 974.115 2050.07 952.534 2027.64 934.835C2005.21 917.124 1980.52 903.318 1954.64 894.084C1928.77 884.824 1901.73 880.18 1874.82 880.18H1835.49V915.05H1874.82C1898.88 915.05 1923 919.204 1946.07 927.458C1969.15 935.695 1991.16 948.004 2011.18 963.809C2031.21 979.608 2049.25 998.881 2064.53 1020.84C2079.83 1042.79 2092.38 1067.4 2101.61 1093.67C2110.85 1119.92 2116.74 1147.81 2119.07 1176.08C2121.41 1204.35 2120.24 1232.98 2115.56 1260.88C2110.89 1288.76 2102.68 1315.82 2091.29 1340.87C2079.92 1365.92 2065.4 1388.97 2048.37 1409.05C2031.33 1429.14 2011.79 1446.26 1990.54 1459.67C1969.3 1473.09 1946.35 1482.78 1922.7 1488.28C1899.04 1493.8 1874.76 1495.18 1850.78 1492.42C1826.8 1489.68 1803.15 1482.72 1780.89 1471.82C1758.61 1460.94 1737.74 1446.14 1719.12 1428.11C1700.5 1410.09 1684.15 1388.82 1670.75 1365.21C1657.35 1341.6 1646.9 1315.64 1639.92 1288.43C1633.12 1262.01 1629.62 1234.42 1629.42 1206.86H1628.48V0L1598.9 0V1206.88H1598.89Z" fill="var(--fill-0, #FEC9D7)"/>
<path id="Vector_13" d="M1539.74 1206.88H1540.67C1540.86 1244.52 1545.64 1282.46 1554.99 1318.79C1564.52 1355.91 1578.77 1391.31 1597.01 1423.43C1615.25 1455.56 1637.46 1484.45 1662.78 1508.96C1688.09 1533.49 1716.51 1553.64 1746.88 1568.48C1777.24 1583.34 1809.56 1592.83 1842.18 1596.56C1850.33 1597.52 1858.5 1598.04 1866.66 1598.32C1874.81 1598.52 1882.96 1598.43 1891.12 1597.97C1893.16 1597.86 1895.21 1597.69 1897.25 1597.54L1900.31 1597.3L1903.37 1596.99C1905.41 1596.77 1907.45 1596.57 1909.49 1596.32L1915.6 1595.5C1917.63 1595.24 1919.66 1594.87 1921.7 1594.55C1923.73 1594.21 1925.76 1593.88 1927.78 1593.48L1933.85 1592.28L1939.91 1590.92C1972.15 1583.42 2003.49 1570.19 2032.42 1551.9C2061.37 1533.62 2087.94 1510.33 2111.1 1483.03C2134.25 1455.73 2154 1424.4 2169.5 1390.27C2185.01 1356.15 2196.23 1319.21 2202.6 1281.18L2203.75 1274.04L2204.77 1266.89C2205.11 1264.5 2205.39 1262.11 2205.68 1259.71C2205.95 1257.31 2206.26 1254.92 2206.48 1252.52L2207.18 1245.32C2207.39 1242.91 2207.56 1240.51 2207.74 1238.1L2208.01 1234.49L2208.21 1230.88C2208.34 1228.48 2208.48 1226.07 2208.58 1223.66C2208.96 1214.04 2209.05 1204.43 2208.88 1194.81C2208.64 1185.19 2208.19 1175.56 2207.38 1165.95C2204.22 1127.49 2196.17 1089.39 2183.57 1053.59C2170.98 1017.77 2153.89 984.269 2133.09 954.429C2112.3 924.572 2087.8 898.38 2060.55 876.875C2033.31 855.365 2003.28 838.569 1971.8 827.332C1940.33 816.068 1907.41 810.428 1874.82 810.433H1835.49V845.304H1874.82C1904.57 845.304 1934.55 850.443 1963.22 860.706C1991.91 870.941 2019.26 886.239 2044.1 905.855C2068.94 925.46 2091.29 949.344 2110.24 976.565C2129.2 1003.77 2144.78 1034.32 2156.25 1066.95C2167.73 1099.56 2175.06 1134.26 2177.95 1169.32C2178.69 1178.09 2179.09 1186.87 2179.31 1195.65C2179.46 1204.43 2179.38 1213.2 2179.03 1221.98C2178.95 1224.18 2178.82 1226.37 2178.7 1228.56L2178.52 1231.86L2178.28 1235.15C2178.11 1237.34 2177.96 1239.53 2177.77 1241.72L2177.14 1248.29C2176.94 1250.48 2176.65 1252.66 2176.4 1254.84C2176.14 1257.03 2175.88 1259.21 2175.57 1261.38L2174.64 1267.91L2173.59 1274.41C2167.79 1309.05 2157.57 1342.7 2143.43 1373.79C2129.31 1404.9 2111.3 1433.47 2090.19 1458.37C2069.07 1483.26 2044.84 1504.5 2018.46 1521.15C1992.09 1537.81 1963.55 1549.86 1934.17 1556.71L1928.66 1557.95L1923.12 1559.04C1921.28 1559.41 1919.43 1559.71 1917.58 1560.02C1915.73 1560.31 1913.87 1560.65 1912.02 1560.89L1906.45 1561.63C1904.59 1561.86 1902.73 1562.04 1900.87 1562.24L1898.08 1562.52L1895.29 1562.73C1893.43 1562.87 1891.57 1563.03 1889.71 1563.12C1882.26 1563.54 1874.82 1563.63 1867.38 1563.45C1859.93 1563.19 1852.48 1562.71 1845.05 1561.85C1815.31 1558.44 1785.88 1549.8 1758.22 1536.26C1730.54 1522.73 1704.64 1504.36 1681.57 1482.01C1658.48 1459.67 1638.22 1433.31 1621.6 1404.02C1604.96 1374.74 1591.99 1342.49 1583.3 1308.67C1574.8 1275.64 1570.45 1241.15 1570.26 1206.87H1569.32V0L1539.74 0V1206.88H1539.74Z" fill="var(--fill-0, #FEC9D7)"/>
<path id="Vector_14" d="M1480.59 1206.88H1481.52C1481.6 1217.36 1481.91 1227.86 1482.56 1238.36C1482.72 1241.19 1482.95 1244.02 1483.16 1246.85L1483.49 1251.09C1483.6 1252.51 1483.75 1253.92 1483.88 1255.33C1484.15 1258.16 1484.42 1260.98 1484.72 1263.8L1485.72 1272.26C1488.53 1294.8 1492.76 1317.15 1498.38 1339.01C1509.61 1382.74 1526.39 1424.44 1547.86 1462.23C1569.32 1500.05 1595.45 1534.02 1625.23 1562.85C1655 1591.7 1688.45 1615.42 1724.23 1632.9C1759.98 1650.41 1798.07 1661.59 1836.45 1665.98C1846.04 1667.09 1855.64 1667.72 1865.23 1668.04C1874.81 1668.29 1884.38 1668.17 1893.98 1667.63C1896.37 1667.5 1898.77 1667.3 1901.18 1667.13L1904.77 1666.84L1908.37 1666.48C1910.77 1666.23 1913.17 1665.99 1915.56 1665.7L1922.75 1664.74C1925.15 1664.43 1927.54 1664 1929.93 1663.61C1932.32 1663.22 1934.71 1662.82 1937.09 1662.35L1944.25 1660.94L1951.38 1659.34C1989.35 1650.5 2026.28 1634.91 2060.34 1613.38C2094.43 1591.86 2125.68 1564.46 2152.91 1532.35C2180.15 1500.24 2203.38 1463.39 2221.63 1423.2C2239.89 1383.04 2253.12 1339.5 2260.61 1294.72L2261.97 1286.32L2263.17 1277.88C2263.57 1275.07 2263.9 1272.25 2264.24 1269.43C2264.56 1266.61 2264.92 1263.79 2265.19 1260.97L2266.01 1252.5C2266.25 1249.67 2266.46 1246.84 2266.67 1244.01L2266.98 1239.77L2267.22 1235.53C2267.36 1232.7 2267.53 1229.87 2267.64 1227.04C2268.09 1215.73 2268.2 1204.45 2267.99 1193.15C2267.72 1181.84 2267.19 1170.52 2266.24 1159.21C2262.52 1113.96 2253.04 1069.05 2238.19 1026.89C2223.36 984.704 2203.24 945.271 2178.78 910.172C2154.33 875.051 2125.51 844.247 2093.44 818.937C2061.39 793.621 2026.03 773.837 1988.94 760.602C1970.4 753.971 1951.44 748.989 1932.33 745.668L1925.15 744.492C1922.76 744.138 1920.37 743.822 1917.97 743.501C1916.77 743.349 1915.57 743.18 1914.37 743.039L1910.78 742.652C1908.38 742.407 1905.98 742.129 1903.58 741.944C1893.98 741.117 1884.38 740.746 1874.81 740.703H1835.48V775.573H1874.81C1910.24 775.568 1946.08 781.704 1980.36 793.97C2014.65 806.203 2047.34 824.496 2076.99 847.911C2106.65 871.316 2133.31 899.817 2155.93 932.303C2178.56 964.772 2197.17 1001.24 2210.87 1040.25C2224.6 1079.22 2233.36 1120.73 2236.8 1162.58C2237.68 1173.05 2238.17 1183.52 2238.42 1193.99C2238.61 1204.45 2238.52 1214.89 2238.1 1225.36C2238 1227.98 2237.84 1230.6 2237.71 1233.21L2237.48 1237.14L2237.2 1241.06C2237 1243.68 2236.82 1246.3 2236.59 1248.91L2235.83 1256.75C2235.59 1259.36 2235.25 1261.97 2234.95 1264.58C2234.64 1267.18 2234.34 1269.79 2233.96 1272.39L2232.86 1280.19L2231.6 1287.95C2224.67 1329.35 2212.45 1369.6 2195.56 1406.74C2178.69 1443.9 2157.19 1477.99 2132 1507.7C2106.81 1537.4 2077.9 1562.75 2046.38 1582.64C2014.88 1602.55 1980.75 1616.96 1945.64 1625.13L1939.05 1626.62L1932.44 1627.92C1930.23 1628.36 1928.02 1628.72 1925.81 1629.09C1923.6 1629.44 1921.39 1629.84 1919.17 1630.12L1912.52 1631.01C1910.3 1631.29 1908.08 1631.5 1905.87 1631.74L1902.54 1632.07L1899.21 1632.33C1896.99 1632.49 1894.77 1632.67 1892.55 1632.79C1883.67 1633.29 1874.81 1633.4 1865.94 1633.18C1857.07 1632.88 1848.18 1632.3 1839.31 1631.26C1803.81 1627.21 1768.61 1616.87 1735.55 1600.69C1702.47 1584.53 1671.54 1562.59 1644 1535.91C1616.45 1509.24 1592.28 1477.8 1572.43 1442.83C1552.57 1407.87 1537.06 1369.32 1526.68 1328.9C1516.48 1289.27 1511.28 1247.87 1511.09 1206.88H1510.16V0L1480.58 0V1206.88H1480.59Z" fill="var(--fill-0, #FEC9D7)"/>
</g>
</svg>
