<svg preserveAspectRatio="none" width="100%" height="100%" overflow="visible" style="display: block;" viewBox="0 0 2297.67 1588.14" fill="none" xmlns="http://www.w3.org/2000/svg">
<g id="Group 1" opacity="0.35">
<g id="Vector">
</g>
<path id="Vector_2" d="M2297.56 1111.88C2297.27 1100.55 2296.69 1089.2 2295.68 1077.86C2293.66 1055.19 2290.14 1032.58 2285.09 1010.36C2280.04 988.134 2273.49 966.308 2265.51 945.167C2249.57 902.855 2227.93 863.315 2201.63 828.132C2175.35 792.928 2144.38 762.049 2109.9 736.674C2075.43 711.294 2037.41 691.448 1997.51 678.172C1977.58 671.521 1957.18 666.525 1936.63 663.195L1928.92 662.017C1926.35 661.662 1923.77 661.342 1921.19 661.022C1919.91 660.865 1918.62 660.697 1917.33 660.56L1913.47 660.169C1910.89 659.925 1908.31 659.651 1905.73 659.463C1895.41 658.631 1885.1 658.265 1874.81 658.219H1835.49V0L1805.91 0V1125.47H1806.88C1807.07 1132.32 1808.03 1138.76 1809.74 1144.97C1811.63 1151.85 1814.47 1158.46 1818.2 1164.59C1821.92 1170.72 1826.53 1176.33 1831.76 1181.04C1836.99 1185.76 1842.78 1189.56 1848.84 1192.33C1854.92 1195.09 1861.26 1196.84 1867.96 1197.57C1869.63 1197.76 1871.34 1197.82 1873.07 1197.91C1874.81 1197.93 1876.56 1197.92 1878.28 1197.84C1878.71 1197.82 1879.13 1197.77 1879.56 1197.75L1880.19 1197.72L1880.83 1197.65L1882.09 1197.53C1882.5 1197.46 1882.92 1197.41 1883.34 1197.37C1883.76 1197.34 1884.16 1197.23 1884.58 1197.18C1884.99 1197.11 1885.41 1197.08 1885.81 1196.98C1886.22 1196.9 1886.63 1196.83 1887.04 1196.77C1887.44 1196.67 1887.85 1196.58 1888.25 1196.5C1894.71 1195.09 1900.89 1192.67 1906.75 1189.22C1912.59 1185.78 1918.09 1181.31 1922.88 1176.05C1927.67 1170.78 1931.74 1164.74 1934.86 1158.31C1937.99 1151.87 1940.19 1145.07 1941.48 1137.98C1941.55 1137.53 1941.63 1137.08 1941.72 1136.64C1941.77 1136.19 1941.84 1135.74 1941.91 1135.29C1942 1134.84 1942.04 1134.39 1942.09 1133.94C1942.14 1133.48 1942.24 1133.04 1942.26 1132.57C1942.3 1132.11 1942.35 1131.65 1942.41 1131.19L1942.52 1129.81L1942.58 1129.11L1942.61 1128.41C1942.63 1127.94 1942.68 1127.48 1942.69 1127.01C1942.77 1125.12 1942.78 1123.19 1942.76 1121.28C1942.68 1119.38 1942.62 1117.5 1942.44 1115.66C1941.78 1108.29 1940.19 1101.32 1937.68 1094.64C1935.17 1087.97 1931.7 1081.6 1927.41 1075.86C1923.13 1070.11 1918.03 1065.04 1912.45 1060.94C1906.88 1056.84 1900.86 1053.72 1894.61 1051.64C1888.34 1049.56 1881.81 1048.47 1874.8 1048.45H1835.48V1015.94H1874.8C1884.66 1015.96 1894.11 1017.5 1903.18 1020.52C1912.24 1023.54 1920.92 1028.05 1928.91 1033.92C1936.88 1039.79 1944.15 1047.01 1950.26 1055.22C1956.38 1063.42 1961.36 1072.55 1964.99 1082.19C1968.62 1091.84 1970.93 1101.98 1971.87 1112.51C1972.12 1115.15 1972.23 1117.82 1972.32 1120.5C1972.36 1123.19 1972.34 1125.91 1972.23 1128.58C1972.21 1129.25 1972.14 1129.91 1972.11 1130.57L1972.07 1131.57L1971.98 1132.56C1971.92 1133.22 1971.89 1133.89 1971.82 1134.54C1971.74 1135.2 1971.68 1135.85 1971.62 1136.51C1971.57 1137.17 1971.45 1137.81 1971.38 1138.46C1971.29 1139.11 1971.23 1139.77 1971.11 1140.41C1971.01 1141.06 1970.91 1141.71 1970.83 1142.35C1970.71 1142.99 1970.59 1143.64 1970.48 1144.28C1968.64 1154.53 1965.43 1164.4 1960.92 1173.66C1956.42 1182.91 1950.62 1191.52 1943.78 1199.04C1936.95 1206.55 1929.11 1212.93 1920.7 1217.88C1912.28 1222.84 1903.31 1226.37 1893.98 1228.4C1893.39 1228.52 1892.81 1228.64 1892.23 1228.77C1891.64 1228.87 1891.05 1228.97 1890.46 1229.09C1889.88 1229.22 1889.28 1229.29 1888.69 1229.38C1888.09 1229.46 1887.51 1229.59 1886.91 1229.64C1886.32 1229.71 1885.72 1229.78 1885.12 1229.87C1884.53 1229.94 1883.92 1229.98 1883.32 1230.04L1882.42 1230.14L1881.51 1230.19C1880.91 1230.22 1880.3 1230.29 1879.7 1230.32C1877.27 1230.44 1874.8 1230.45 1872.35 1230.42C1869.91 1230.31 1867.48 1230.2 1865.08 1229.93C1855.5 1228.9 1846.28 1226.36 1837.51 1222.36C1828.74 1218.37 1820.43 1212.89 1812.98 1206.16C1805.52 1199.44 1798.95 1191.45 1793.61 1182.68C1788.27 1173.9 1784.17 1164.36 1781.42 1154.4C1778.87 1145.12 1777.48 1135.48 1777.28 1125.46H1776.33V0L1746.75 0V1125.47H1747.7C1747.9 1138.63 1749.72 1151.48 1753.12 1163.83C1756.71 1176.87 1762.08 1189.35 1769.03 1200.77C1775.98 1212.2 1784.51 1222.55 1794.2 1231.29C1803.89 1240.04 1814.7 1247.18 1826.17 1252.4C1837.65 1257.63 1849.76 1260.96 1862.22 1262.3C1865.33 1262.65 1868.48 1262.81 1871.63 1262.93C1874.8 1262.99 1877.98 1262.96 1881.12 1262.81C1881.91 1262.77 1882.69 1262.69 1883.48 1262.64L1884.65 1262.57L1885.83 1262.44C1886.61 1262.36 1887.39 1262.31 1888.17 1262.22L1890.49 1261.92C1891.27 1261.85 1892.04 1261.69 1892.81 1261.58C1893.58 1261.46 1894.36 1261.36 1895.12 1261.21L1897.43 1260.79L1899.72 1260.31C1911.91 1257.66 1923.68 1253.03 1934.66 1246.56C1945.64 1240.1 1955.82 1231.79 1964.69 1222.04C1973.56 1212.28 1981.11 1201.09 1986.99 1189.02C1992.87 1176.94 1997.09 1164 1999.5 1150.6L1999.94 1148.08L2000.31 1145.55C2000.46 1144.7 2000.55 1143.85 2000.65 1143C2000.75 1142.15 2000.9 1141.31 2000.96 1140.45L2001.23 1137.9C2001.31 1137.04 2001.37 1136.18 2001.44 1135.32L2001.55 1134.04L2001.62 1132.74C2001.66 1131.88 2001.73 1131.02 2001.77 1130.15C2001.91 1126.7 2001.94 1123.2 2001.88 1119.72C2001.77 1116.25 2001.62 1112.79 2001.31 1109.37C2000.09 1095.66 1997.06 1082.35 1992.31 1069.74C1987.55 1057.13 1981.06 1045.23 1973.11 1034.58C1965.16 1023.92 1955.74 1014.54 1945.35 1006.91C1934.96 999.263 1923.61 993.353 1911.75 989.408C1899.88 985.453 1887.49 983.443 1874.8 983.427H1835.47V950.909H1874.8C1890.34 950.924 1905.66 953.397 1920.33 958.286C1935 963.165 1949.01 970.466 1961.81 979.889C1974.61 989.302 1986.18 1000.83 1995.96 1013.94C2005.75 1027.04 2013.76 1041.71 2019.63 1057.29C2025.51 1072.87 2029.25 1089.36 2030.75 1106.23C2031.14 1110.44 2031.33 1114.69 2031.46 1118.95C2031.53 1123.21 2031.49 1127.49 2031.31 1131.74C2031.27 1132.8 2031.19 1133.86 2031.14 1134.92L2031.05 1136.5L2030.92 1138.09C2030.82 1139.14 2030.76 1140.2 2030.66 1141.26L2030.33 1144.41C2030.24 1145.47 2030.07 1146.51 2029.95 1147.55C2029.81 1148.6 2029.7 1149.65 2029.52 1150.69L2029.06 1153.82L2028.51 1156.92C2025.54 1173.48 2020.32 1189.49 2013.07 1204.39C2005.82 1219.29 1996.52 1233.05 1985.61 1245.05C1974.7 1257.05 1962.18 1267.27 1948.63 1275.24C1935.08 1283.22 1920.52 1288.95 1905.46 1292.22L1902.64 1292.82L1899.79 1293.33C1898.85 1293.53 1897.9 1293.65 1896.94 1293.8C1895.99 1293.94 1895.05 1294.13 1894.09 1294.22L1891.22 1294.58C1890.26 1294.69 1889.3 1294.77 1888.34 1294.87L1886.9 1295.01L1885.45 1295.11C1884.49 1295.17 1883.53 1295.26 1882.56 1295.3C1878.7 1295.5 1874.81 1295.54 1870.93 1295.46C1867.06 1295.32 1863.2 1295.11 1859.36 1294.68C1844.02 1293.04 1829.02 1288.92 1814.85 1282.46C1800.68 1276.01 1787.35 1267.2 1775.43 1256.43C1763.5 1245.68 1753.02 1232.95 1744.46 1218.88C1735.89 1204.81 1729.26 1189.4 1724.81 1173.27C1720.56 1157.85 1718.32 1141.78 1718.12 1125.48H1717.18V0L1687.61 0V1125.47H1688.55C1688.75 1144.91 1691.41 1164.19 1696.51 1182.68C1701.8 1201.9 1709.71 1220.24 1719.88 1236.96C1730.06 1253.68 1742.49 1268.78 1756.65 1281.54C1770.8 1294.33 1786.65 1304.8 1803.52 1312.48C1820.39 1320.18 1838.27 1325.08 1856.49 1327.03C1861.04 1327.53 1865.62 1327.79 1870.21 1327.95C1874.8 1328.04 1879.4 1327.99 1883.98 1327.76C1885.12 1327.7 1886.26 1327.6 1887.41 1327.53L1889.12 1327.42L1890.83 1327.25C1891.97 1327.13 1893.11 1327.04 1894.25 1326.91L1897.66 1326.48C1898.8 1326.35 1899.93 1326.14 1901.06 1325.98C1902.19 1325.81 1903.33 1325.65 1904.45 1325.43L1907.83 1324.81L1911.19 1324.1C1929.11 1320.21 1946.47 1313.38 1962.58 1303.88C1978.7 1294.4 1993.56 1282.27 2006.51 1268.02C2019.47 1253.78 2030.5 1237.44 2039.13 1219.72C2047.76 1202 2053.97 1182.91 2057.51 1163.21L2058.16 1159.51L2058.72 1155.8C2058.92 1154.56 2059.06 1153.31 2059.22 1152.07C2059.37 1150.83 2059.56 1149.59 2059.67 1148.33L2060.07 1144.59C2060.19 1143.34 2060.27 1142.08 2060.37 1140.82L2060.53 1138.95L2060.63 1137.06C2060.7 1135.8 2060.79 1134.55 2060.84 1133.29C2061.05 1128.25 2061.1 1123.2 2061.01 1118.15C2060.86 1113.11 2060.63 1108.07 2060.18 1103.06C2058.4 1083.03 2053.94 1063.36 2046.94 1044.82C2039.95 1026.27 2030.43 1008.84 2018.81 993.287C2007.2 977.721 1993.47 964.043 1978.26 952.859C1963.06 941.664 1946.37 932.972 1928.9 927.159C1911.43 921.33 1893.18 918.391 1874.8 918.381H1835.47V885.862H1874.8C1896.03 885.868 1917.21 889.274 1937.48 896.037C1957.75 902.784 1977.1 912.872 1994.71 925.839C2012.33 938.8 2028.21 954.626 2041.66 972.644C2055.12 990.657 2066.16 1010.84 2074.26 1032.36C2082.39 1053.88 2087.56 1076.72 2089.61 1099.91C2091.68 1123.12 2090.64 1146.69 2086.53 1169.53C2082.42 1192.38 2075.21 1214.55 2065.2 1235.08C2055.2 1255.63 2042.42 1274.54 2027.43 1291.03C2012.44 1307.51 1995.23 1321.57 1976.55 1332.56C1957.87 1343.57 1937.72 1351.5 1916.93 1356.01C1896.16 1360.53 1874.73 1361.68 1853.62 1359.4C1832.52 1357.15 1811.75 1351.45 1792.19 1342.52C1772.62 1333.61 1754.25 1321.48 1737.87 1306.68C1721.48 1291.89 1707.09 1274.42 1695.31 1255.05C1683.51 1235.69 1674.34 1214.41 1668.2 1192.12C1662.25 1170.55 1659.17 1148.05 1658.97 1125.47H1658.02V0L1628.45 0V1125.47H1629.39C1629.59 1151.17 1633.1 1176.9 1639.9 1201.54C1646.88 1226.92 1657.32 1251.12 1670.73 1273.14C1684.13 1295.16 1700.47 1314.99 1719.1 1331.8C1737.71 1348.61 1758.59 1362.41 1780.86 1372.56C1803.12 1382.72 1826.78 1389.2 1850.76 1391.77C1874.73 1394.34 1899.02 1393.05 1922.67 1387.91C1946.32 1382.77 1969.27 1373.74 1990.51 1361.22C2011.76 1348.72 2031.31 1332.75 2048.34 1314.02C2065.38 1295.29 2079.9 1273.8 2091.27 1250.44C2102.65 1227.08 2110.87 1201.85 2115.54 1175.84C2120.22 1149.83 2121.39 1123.13 2119.05 1096.77C2116.72 1070.4 2110.82 1044.39 2101.58 1019.91C2092.35 995.419 2079.8 972.466 2064.51 952.001C2049.22 931.525 2031.18 913.547 2011.16 898.814C1991.14 884.075 1969.12 872.591 1946.04 864.915C1922.97 857.218 1898.86 853.349 1874.79 853.344H1835.46V820.826H1874.79C1901.7 820.826 1928.74 825.162 1954.62 833.793C1980.5 842.403 2005.18 855.279 2027.61 871.794C2050.05 888.299 2070.24 908.425 2087.36 931.358C2104.48 954.275 2118.55 979.995 2128.9 1007.45C2139.26 1034.9 2145.87 1064.09 2148.48 1093.62C2149.14 1101 2149.51 1108.4 2149.71 1115.81C2149.84 1123.2 2149.78 1130.6 2149.46 1138.01C2149.39 1139.86 2149.26 1141.71 2149.16 1143.56L2149 1146.33L2148.78 1149.1C2148.63 1150.95 2148.5 1152.8 2148.32 1154.64L2147.75 1160.17C2147.57 1162.01 2147.31 1163.85 2147.08 1165.69C2146.85 1167.52 2146.63 1169.36 2146.34 1171.2L2145.5 1176.69L2144.55 1182.16C2139.32 1211.31 2130.1 1239.62 2117.34 1265.8C2104.59 1291.99 2088.32 1316.05 2069.25 1337.03C2050.18 1358 2028.29 1375.88 2004.47 1389.9C1980.67 1403.93 1954.92 1414.07 1928.41 1419.83L1923.43 1420.87L1918.43 1421.79C1916.77 1422.11 1915.09 1422.35 1913.42 1422.61C1911.75 1422.86 1910.08 1423.15 1908.4 1423.34L1903.38 1423.97C1901.7 1424.16 1900.02 1424.31 1898.34 1424.48L1895.82 1424.72L1893.3 1424.89C1891.62 1425.01 1889.94 1425.14 1888.25 1425.22C1881.52 1425.57 1874.79 1425.65 1868.06 1425.49C1861.33 1425.27 1854.59 1424.87 1847.88 1424.14C1821.02 1421.27 1794.48 1414 1769.51 1402.61C1744.54 1391.23 1721.15 1375.77 1700.31 1356.94C1679.45 1338.12 1661.15 1315.91 1646.14 1291.25C1631.12 1266.59 1619.41 1239.45 1611.58 1210.99C1603.93 1183.27 1600 1154.32 1599.8 1125.49H1598.86V0L1569.29 0V1125.47H1570.23C1570.42 1157.44 1574.77 1189.6 1583.27 1220.4C1591.96 1251.94 1604.93 1282.01 1621.57 1309.32C1638.19 1336.64 1658.45 1361.21 1681.54 1382.05C1704.61 1402.9 1730.52 1420.03 1758.19 1432.64C1785.85 1445.26 1815.28 1453.33 1845.02 1456.5C1852.45 1457.31 1859.9 1457.76 1867.35 1457.99C1874.79 1458.16 1882.23 1458.08 1889.68 1457.69C1891.54 1457.6 1893.4 1457.45 1895.26 1457.33L1898.05 1457.13L1900.84 1456.86C1902.7 1456.68 1904.56 1456.51 1906.42 1456.3L1911.99 1455.6C1913.84 1455.39 1915.7 1455.07 1917.55 1454.79C1919.4 1454.51 1921.25 1454.23 1923.09 1453.88L1928.63 1452.86L1934.14 1451.71C1963.52 1445.33 1992.06 1434.09 2018.43 1418.55C2044.81 1403.02 2069.04 1383.22 2090.16 1360C2111.27 1336.78 2129.28 1310.14 2143.4 1281.13C2157.54 1252.14 2167.76 1220.75 2173.56 1188.45L2174.61 1182.39L2175.54 1176.3C2175.85 1174.28 2176.1 1172.24 2176.37 1170.21C2176.62 1168.17 2176.91 1166.13 2177.11 1164.09L2177.74 1157.97C2177.93 1155.93 2178.08 1153.88 2178.25 1151.84L2178.49 1148.77L2178.67 1145.7C2178.79 1143.65 2178.92 1141.61 2179 1139.56C2179.35 1131.37 2179.43 1123.19 2179.28 1115.01C2179.06 1106.82 2178.65 1098.63 2177.92 1090.46C2175.03 1057.75 2167.7 1025.4 2156.22 994.983C2144.75 964.551 2129.17 936.069 2110.21 910.699C2091.26 885.314 2068.91 863.036 2044.07 844.759C2019.23 826.472 1991.88 812.2 1963.19 802.655C1934.52 793.085 1904.54 788.292 1874.79 788.292H1835.46V755.774H1874.79C1907.38 755.774 1940.3 761.029 1971.77 771.533C2003.25 782.012 2033.28 797.675 2060.52 817.734C2087.77 837.788 2112.27 862.214 2133.06 890.056C2153.86 917.883 2170.95 949.127 2183.54 982.529C2196.14 1015.91 2204.19 1051.44 2207.35 1087.31C2208.16 1096.27 2208.61 1105.26 2208.85 1114.23C2209.02 1123.19 2208.93 1132.15 2208.55 1141.13C2208.45 1143.37 2208.31 1145.62 2208.18 1147.86L2207.98 1151.23L2207.71 1154.59C2207.53 1156.84 2207.36 1159.08 2207.15 1161.32L2206.45 1168.04C2206.23 1170.28 2205.92 1172.51 2205.65 1174.74C2205.36 1176.98 2205.08 1179.21 2204.74 1181.44L2203.72 1188.11L2202.57 1194.77C2196.2 1230.22 2184.98 1264.68 2169.47 1296.5C2153.97 1328.33 2134.22 1357.54 2111.07 1383C2087.91 1408.46 2061.34 1430.18 2032.39 1447.22C2003.46 1464.28 1972.12 1476.61 1939.88 1483.61L1933.82 1484.88L1927.75 1486C1925.73 1486.38 1923.7 1486.68 1921.67 1487C1919.63 1487.3 1917.6 1487.64 1915.57 1487.88L1909.46 1488.65C1907.42 1488.88 1905.38 1489.07 1903.34 1489.27L1900.28 1489.56L1897.22 1489.78C1895.18 1489.92 1893.13 1490.08 1891.09 1490.18C1882.93 1490.61 1874.78 1490.7 1866.63 1490.51C1858.47 1490.26 1850.3 1489.76 1842.15 1488.87C1809.53 1485.4 1777.21 1476.55 1746.85 1462.69C1716.48 1448.85 1688.06 1430.05 1662.75 1407.19C1637.43 1384.33 1615.22 1357.38 1596.98 1327.42C1578.74 1297.47 1564.49 1264.46 1554.96 1229.84C1545.61 1195.96 1540.83 1160.57 1540.64 1125.48H1539.71V0L1510.13 0V1125.47H1511.06C1511.26 1163.69 1516.46 1202.3 1526.66 1239.25C1537.03 1276.95 1552.55 1312.9 1572.41 1345.5C1592.26 1378.11 1616.43 1407.43 1643.98 1432.3C1671.52 1457.18 1702.45 1477.64 1735.53 1492.71C1768.58 1507.81 1803.78 1517.44 1839.28 1521.23C1848.16 1522.19 1857.04 1522.73 1865.92 1523.01C1874.79 1523.22 1883.64 1523.11 1892.53 1522.65C1894.75 1522.54 1896.97 1522.37 1899.18 1522.22L1902.51 1521.98L1905.84 1521.67C1908.06 1521.45 1910.28 1521.25 1912.5 1520.99L1919.14 1520.16C1921.36 1519.89 1923.57 1519.52 1925.78 1519.19C1928 1518.85 1930.21 1518.52 1932.41 1518.1L1939.02 1516.89L1945.61 1515.51C1980.72 1507.89 2014.85 1494.45 2046.35 1475.88C2077.87 1457.33 2106.78 1433.69 2131.98 1405.99C2157.17 1378.29 2178.67 1346.5 2195.54 1311.84C2212.42 1277.21 2224.65 1239.68 2231.58 1201.07L2232.83 1193.83L2233.94 1186.56C2234.31 1184.14 2234.61 1181.71 2234.93 1179.27C2235.23 1176.84 2235.57 1174.41 2235.81 1171.97L2236.56 1164.66C2236.79 1162.22 2236.98 1159.78 2237.18 1157.35L2237.46 1153.69L2237.68 1150.02C2237.82 1147.58 2237.98 1145.14 2238.07 1142.7C2238.49 1132.94 2238.59 1123.2 2238.4 1113.44C2238.15 1103.69 2237.65 1093.92 2236.78 1084.16C2233.34 1045.13 2224.57 1006.42 2210.84 970.075C2197.14 933.703 2178.53 899.692 2155.9 869.413C2133.28 839.118 2106.62 812.54 2076.96 790.714C2047.31 768.878 2014.62 751.824 1980.33 740.411C1946.06 728.973 1910.22 723.246 1874.78 723.256H1835.46V690.738H1874.78C1884.36 690.778 1893.95 691.124 1903.55 691.895C1905.95 692.068 1908.35 692.327 1910.75 692.555L1914.35 692.916C1915.55 693.043 1916.74 693.2 1917.94 693.347C1920.34 693.647 1922.74 693.941 1925.13 694.271L1932.3 695.368C1951.41 698.465 1970.38 703.11 1988.91 709.294C2026 721.636 2061.36 740.086 2093.42 763.694C2125.49 787.292 2154.3 816.023 2178.75 848.775C2203.22 881.506 2223.34 918.284 2238.17 957.621C2253.01 996.932 2262.49 1038.81 2266.22 1081.01C2267.16 1091.56 2267.7 1102.12 2267.97 1112.66C2268.17 1123.2 2268.07 1133.72 2267.61 1144.27C2267.5 1146.91 2267.34 1149.55 2267.19 1152.19L2266.95 1156.14L2266.65 1160.1C2266.43 1162.74 2266.23 1165.37 2265.98 1168.01L2265.16 1175.91C2264.9 1178.55 2264.54 1181.18 2264.21 1183.8C2263.87 1186.43 2263.54 1189.06 2263.14 1191.68L2261.94 1199.55L2260.59 1207.38C2253.09 1249.14 2239.87 1289.74 2221.61 1327.2C2203.36 1364.68 2180.12 1399.04 2152.89 1428.99C2125.65 1458.93 2094.4 1484.48 2060.31 1504.55C2026.25 1524.63 1989.32 1539.17 1951.35 1547.41L1944.22 1548.9L1937.07 1550.21C1934.69 1550.66 1932.29 1551.02 1929.9 1551.39C1927.51 1551.75 1925.12 1552.15 1922.73 1552.44L1915.54 1553.34C1913.14 1553.61 1910.74 1553.83 1908.34 1554.07L1904.75 1554.4L1901.15 1554.67C1898.75 1554.83 1896.35 1555.01 1893.95 1555.13C1884.35 1555.63 1874.79 1555.75 1865.2 1555.52C1855.61 1555.23 1846.01 1554.64 1836.42 1553.6C1798.05 1549.51 1759.96 1539.08 1724.2 1522.75C1688.42 1506.45 1654.98 1484.33 1625.21 1457.43C1595.42 1430.54 1569.3 1398.85 1547.83 1363.59C1526.36 1328.35 1509.58 1289.47 1498.36 1248.69C1492.73 1228.3 1488.51 1207.46 1485.69 1186.44L1484.69 1178.55C1484.39 1175.92 1484.13 1173.29 1483.85 1170.65C1483.72 1169.33 1483.58 1168.02 1483.46 1166.7L1483.13 1162.74C1482.93 1160.11 1482.69 1157.47 1482.53 1154.83C1481.88 1145.03 1481.57 1135.24 1481.5 1125.47H1480.56V0L1450.99 0V658.219H851.242V690.738H1451.01V723.256H851.242V755.774H1451.01V788.292H851.242V820.811H1451.01V853.329H851.242V885.847H1451.01V918.365H851.242V950.884H1451.01V983.402H851.242V1015.92H1451.01V1048.44H851.242V1080.96H1451.01V1125.45H1451.95C1452.02 1136.01 1452.36 1146.59 1453.06 1157.17C1453.23 1160.01 1453.48 1162.84 1453.7 1165.68L1454.06 1169.93C1454.18 1171.35 1454.34 1172.76 1454.48 1174.18C1454.77 1177.01 1455.06 1179.85 1455.38 1182.67L1456.45 1191.16C1459.48 1213.76 1464.03 1236.18 1470.08 1258.1C1482.15 1301.96 1500.19 1343.78 1523.28 1381.67C1546.36 1419.58 1574.44 1453.63 1606.46 1482.54C1638.46 1511.45 1674.42 1535.24 1712.9 1552.78C1732.13 1561.55 1751.98 1568.76 1772.18 1574.3C1792.39 1579.86 1812.95 1583.73 1833.58 1585.95C1843.9 1587.06 1854.22 1587.7 1864.52 1588.01C1874.81 1588.26 1885.09 1588.14 1895.41 1587.6C1897.98 1587.47 1900.56 1587.28 1903.15 1587.1L1907.01 1586.82L1910.88 1586.45C1913.46 1586.2 1916.04 1585.96 1918.62 1585.67L1926.35 1584.7C1928.92 1584.39 1931.5 1583.97 1934.06 1583.58C1936.63 1583.19 1939.2 1582.79 1941.77 1582.31L1949.46 1580.9L1957.12 1579.3C1997.96 1570.43 2037.69 1554.79 2074.31 1533.2C2110.96 1511.62 2144.56 1484.16 2173.83 1451.97C2203.11 1419.78 2228.09 1382.85 2247.71 1342.54C2267.35 1302.26 2281.57 1258.59 2289.63 1213.69L2291.08 1205.26L2292.37 1196.8C2292.81 1193.99 2293.16 1191.16 2293.53 1188.33C2293.88 1185.5 2294.26 1182.67 2294.55 1179.85L2295.42 1171.35C2295.69 1168.51 2295.91 1165.68 2296.14 1162.84L2296.47 1158.59L2296.73 1154.33C2296.89 1151.5 2297.06 1148.66 2297.18 1145.83C2297.67 1134.48 2297.78 1123.18 2297.56 1111.86V1111.88ZM1874.81 1080.97C1878.97 1081 1882.57 1081.62 1886.04 1082.76C1889.49 1083.92 1892.83 1085.64 1896.01 1087.97C1899.17 1090.29 1902.12 1093.21 1904.57 1096.5C1907.02 1099.8 1908.97 1103.4 1910.36 1107.1C1911.76 1110.81 1912.63 1114.61 1913.01 1118.81C1913.12 1119.86 1913.14 1120.95 1913.2 1122.07C1913.2 1123.19 1913.2 1124.34 1913.16 1125.44C1913.16 1125.72 1913.11 1125.98 1913.1 1126.25L1913.1 1126.66L1913.05 1127.06C1913.02 1127.32 1913.02 1127.59 1912.99 1127.85C1912.95 1128.11 1912.92 1128.37 1912.91 1128.64C1912.91 1128.9 1912.83 1129.15 1912.81 1129.41C1912.78 1129.66 1912.77 1129.92 1912.71 1130.17C1912.66 1130.42 1912.63 1130.67 1912.61 1130.92C1912.55 1131.17 1912.5 1131.42 1912.46 1131.67C1911.75 1135.62 1910.54 1139.34 1908.78 1142.96C1907.03 1146.56 1904.71 1150.02 1901.96 1153.06C1899.21 1156.08 1896.06 1158.63 1892.78 1160.55C1889.49 1162.48 1886.1 1163.81 1882.51 1164.6C1882.28 1164.64 1882.06 1164.69 1881.84 1164.76C1881.61 1164.78 1881.37 1164.82 1881.15 1164.87C1880.92 1164.94 1880.69 1164.95 1880.46 1164.98C1880.22 1165.01 1880 1165.09 1879.75 1165.09C1879.52 1165.11 1879.28 1165.14 1879.04 1165.18C1878.8 1165.21 1878.56 1165.21 1878.32 1165.25L1877.96 1165.3L1877.59 1165.31C1877.34 1165.31 1877.1 1165.36 1876.85 1165.37C1875.86 1165.41 1874.81 1165.41 1873.78 1165.41C1872.77 1165.34 1871.78 1165.32 1870.82 1165.2C1867 1164.78 1863.55 1163.82 1860.17 1162.29C1856.81 1160.76 1853.53 1158.62 1850.54 1155.92C1847.54 1153.23 1844.88 1149.98 1842.77 1146.51C1840.66 1143.02 1839.09 1139.34 1838.04 1135.54C1837 1131.73 1836.43 1127.78 1836.41 1123.2H1835.49V1080.97H1874.81H1874.81Z" fill="var(--fill-0, #FF91AD)"/>
<path id="Vector_3" d="M1451.01 690.737L3.62387e-06 690.737L0 723.255L1451.01 723.255L1451.01 690.737Z" fill="var(--fill-0, #FEC9D7)"/>
<path id="Vector_4" d="M1451.01 755.779L1.12533e-05 755.779L7.62939e-06 788.298L1451.01 788.298L1451.01 755.779Z" fill="var(--fill-0, #FEC9D7)"/>
<path id="Vector_5" d="M1451.01 820.816L1.12533e-05 820.816L7.62939e-06 853.334L1451.01 853.334L1451.01 820.816Z" fill="var(--fill-0, #FEC9D7)"/>
<path id="Vector_6" d="M1451.01 885.852L1.88827e-05 885.852L1.52588e-05 918.371L1451.01 918.37L1451.01 885.852Z" fill="var(--fill-0, #FEC9D7)"/>
<path id="Vector_7" d="M1451.01 950.894L2.65121e-05 950.894L2.28882e-05 983.412L1451.01 983.412L1451.01 950.894Z" fill="var(--fill-0, #FEC9D7)"/>
<path id="Vector_8" d="M1451.01 1015.93L3.41415e-05 1015.93L3.05176e-05 1048.45L1451.01 1048.45L1451.01 1015.93Z" fill="var(--fill-0, #FEC9D7)"/>
<path id="Vector_9" d="M1776.34 1125.47H1777.29C1777.49 1135.48 1778.88 1145.13 1781.43 1154.4C1784.18 1164.36 1788.28 1173.91 1793.62 1182.68C1798.96 1191.46 1805.53 1199.44 1812.99 1206.17C1820.45 1212.9 1828.75 1218.37 1837.52 1222.36C1846.29 1226.36 1855.52 1228.9 1865.1 1229.93C1867.49 1230.2 1869.92 1230.32 1872.36 1230.42C1874.81 1230.46 1877.28 1230.44 1879.71 1230.32C1880.32 1230.3 1880.92 1230.23 1881.52 1230.2L1882.43 1230.14L1883.33 1230.05C1883.94 1229.98 1884.54 1229.95 1885.14 1229.88C1885.73 1229.79 1886.33 1229.71 1886.92 1229.65C1887.52 1229.6 1888.11 1229.46 1888.7 1229.38C1889.29 1229.29 1889.89 1229.23 1890.47 1229.09C1891.06 1228.98 1891.65 1228.88 1892.24 1228.78C1892.82 1228.65 1893.41 1228.52 1893.99 1228.4C1903.31 1226.37 1912.29 1222.84 1920.71 1217.89C1929.12 1212.94 1936.96 1206.56 1943.79 1199.04C1950.62 1191.53 1956.43 1182.91 1960.93 1173.66C1965.44 1164.4 1968.65 1154.54 1970.5 1144.28C1970.6 1143.64 1970.72 1143 1970.84 1142.36C1970.93 1141.71 1971.02 1141.06 1971.12 1140.42C1971.24 1139.77 1971.3 1139.12 1971.39 1138.47C1971.46 1137.81 1971.58 1137.17 1971.63 1136.51C1971.69 1135.86 1971.76 1135.2 1971.84 1134.55C1971.9 1133.89 1971.93 1133.23 1971.99 1132.57L1972.08 1131.58L1972.13 1130.58C1972.15 1129.91 1972.22 1129.25 1972.24 1128.58C1972.35 1125.91 1972.37 1123.2 1972.33 1120.5C1972.24 1117.82 1972.14 1115.15 1971.89 1112.52C1970.95 1101.98 1968.64 1091.84 1965 1082.19C1961.37 1072.55 1956.39 1063.42 1950.27 1055.22C1944.16 1047.02 1936.9 1039.79 1928.92 1033.93C1920.93 1028.05 1912.25 1023.54 1903.19 1020.53C1894.12 1017.5 1884.67 1015.96 1874.82 1015.94H1835.49V1048.46H1874.82C1881.83 1048.48 1888.35 1049.57 1894.62 1051.65C1900.88 1053.73 1906.89 1056.85 1912.47 1060.95C1918.03 1065.04 1923.15 1070.11 1927.43 1075.86C1931.72 1081.61 1935.18 1087.98 1937.69 1094.64C1940.21 1101.33 1941.79 1108.3 1942.46 1115.66C1942.63 1117.51 1942.69 1119.38 1942.77 1121.28C1942.79 1123.2 1942.78 1125.13 1942.7 1127.01C1942.69 1127.48 1942.64 1127.94 1942.62 1128.42L1942.59 1129.12L1942.53 1129.81L1942.42 1131.2C1942.36 1131.66 1942.32 1132.11 1942.28 1132.57C1942.25 1133.04 1942.15 1133.48 1942.1 1133.94C1942.04 1134.39 1942.01 1134.85 1941.92 1135.3C1941.85 1135.74 1941.79 1136.19 1941.73 1136.65C1941.64 1137.09 1941.56 1137.54 1941.49 1137.98C1940.21 1145.08 1938 1151.88 1934.87 1158.32C1931.74 1164.74 1927.68 1170.78 1922.89 1176.05C1918.1 1181.32 1912.6 1185.79 1906.76 1189.22C1900.9 1192.67 1894.72 1195.09 1888.27 1196.5C1887.86 1196.59 1887.45 1196.67 1887.05 1196.77C1886.64 1196.83 1886.23 1196.91 1885.82 1196.99C1885.42 1197.08 1885 1197.12 1884.59 1197.18C1884.18 1197.24 1883.77 1197.35 1883.35 1197.37C1882.93 1197.42 1882.51 1197.47 1882.1 1197.54L1880.84 1197.65L1880.2 1197.72L1879.57 1197.75C1879.14 1197.77 1878.72 1197.83 1878.29 1197.84C1876.58 1197.93 1874.82 1197.94 1873.08 1197.92C1871.35 1197.83 1869.64 1197.76 1867.97 1197.57C1861.27 1196.84 1854.93 1195.09 1848.85 1192.33C1842.79 1189.57 1837 1185.76 1831.77 1181.05C1826.54 1176.34 1821.93 1170.72 1818.21 1164.6C1814.48 1158.46 1811.64 1151.85 1809.75 1144.97C1808.04 1138.76 1807.08 1132.32 1806.89 1125.47H1805.93V0L1776.35 0V1125.47H1776.34Z" fill="var(--fill-0, #FEC9D7)"/>
<path id="Vector_10" d="M1717.18 1125.47H1718.13C1718.33 1141.77 1720.57 1157.84 1724.82 1173.26C1729.25 1189.39 1735.89 1204.8 1744.46 1218.87C1753.02 1232.94 1763.51 1245.67 1775.43 1256.42C1787.35 1267.19 1800.68 1275.99 1814.86 1282.45C1829.03 1288.91 1844.02 1293.03 1859.36 1294.67C1863.2 1295.1 1867.06 1295.31 1870.93 1295.45C1874.81 1295.53 1878.7 1295.49 1882.56 1295.29C1883.53 1295.25 1884.49 1295.16 1885.45 1295.1L1886.9 1295L1888.34 1294.86C1889.3 1294.75 1890.26 1294.68 1891.22 1294.57L1894.09 1294.21C1895.05 1294.11 1896 1293.93 1896.95 1293.79C1897.9 1293.64 1898.85 1293.52 1899.8 1293.32L1902.64 1292.81L1905.47 1292.21C1920.52 1288.94 1935.09 1283.21 1948.63 1275.23C1962.18 1267.26 1974.7 1257.04 1985.61 1245.04C1996.52 1233.04 2005.82 1219.27 2013.07 1204.38C2020.33 1189.48 2025.54 1173.46 2028.51 1156.91L2029.06 1153.81L2029.52 1150.68C2029.7 1149.64 2029.82 1148.59 2029.95 1147.54C2030.07 1146.49 2030.24 1145.46 2030.33 1144.4L2030.66 1141.25C2030.76 1140.2 2030.83 1139.13 2030.92 1138.08L2031.05 1136.49L2031.14 1134.9C2031.2 1133.84 2031.28 1132.79 2031.32 1131.73C2031.5 1127.48 2031.53 1123.2 2031.46 1118.94C2031.33 1114.68 2031.14 1110.43 2030.75 1106.21C2029.26 1089.35 2025.51 1072.86 2019.63 1057.28C2013.77 1041.7 2005.76 1027.04 1995.97 1013.93C1986.19 1000.82 1974.61 989.291 1961.81 979.878C1949.01 970.456 1935 963.16 1920.33 958.276C1905.66 953.387 1890.34 950.909 1874.8 950.899H1835.48V983.417H1874.8C1887.5 983.432 1899.88 985.443 1911.75 989.398C1923.62 993.348 1934.97 999.252 1945.35 1006.9C1955.74 1014.54 1965.16 1023.91 1973.11 1034.57C1981.07 1045.22 1987.56 1057.12 1992.31 1069.73C1997.06 1082.34 2000.09 1095.65 2001.31 1109.36C2001.63 1112.78 2001.77 1116.24 2001.88 1119.71C2001.94 1123.19 2001.91 1126.69 2001.77 1130.14C2001.74 1131.01 2001.66 1131.87 2001.62 1132.73L2001.55 1134.03L2001.44 1135.31C2001.36 1136.17 2001.32 1137.03 2001.23 1137.89L2000.97 1140.44C2000.9 1141.3 2000.75 1142.14 2000.66 1142.99C2000.55 1143.84 2000.46 1144.69 2000.32 1145.54L1999.94 1148.07L1999.5 1150.59C1997.09 1163.99 1992.88 1176.93 1986.99 1189.01C1981.12 1201.08 1973.57 1212.27 1964.7 1222.03C1955.82 1231.78 1945.65 1240.09 1934.67 1246.55C1923.68 1253.02 1911.91 1257.65 1899.72 1260.3L1897.43 1260.78L1895.13 1261.2C1894.36 1261.36 1893.59 1261.45 1892.81 1261.57C1892.04 1261.68 1891.28 1261.84 1890.5 1261.91L1888.17 1262.21C1887.39 1262.3 1886.61 1262.35 1885.83 1262.43L1884.66 1262.56L1883.48 1262.63C1882.69 1262.68 1881.91 1262.76 1881.12 1262.79C1877.98 1262.95 1874.8 1262.98 1871.63 1262.92C1868.48 1262.8 1865.33 1262.64 1862.22 1262.29C1849.76 1260.95 1837.65 1257.62 1826.18 1252.39C1814.71 1247.17 1803.89 1240.03 1794.2 1231.28C1784.51 1222.54 1775.98 1212.19 1769.04 1200.76C1762.08 1189.34 1756.71 1176.86 1753.12 1163.82C1749.72 1151.48 1747.9 1138.62 1747.7 1125.46H1746.75V0L1717.18 0V1125.47H1717.18Z" fill="var(--fill-0, #FEC9D7)"/>
<path id="Vector_11" d="M1658.04 1125.47H1658.98C1659.18 1148.04 1662.26 1170.55 1668.21 1192.11C1674.35 1214.41 1683.52 1235.68 1695.32 1255.05C1707.1 1274.42 1721.5 1291.88 1737.88 1306.67C1754.27 1321.47 1772.63 1333.6 1792.2 1342.52C1811.77 1351.45 1832.53 1357.14 1853.63 1359.4C1874.73 1361.66 1896.17 1360.52 1916.94 1356C1937.73 1351.49 1957.89 1343.55 1976.56 1332.55C1995.24 1321.56 2012.44 1307.51 2027.44 1291.02C2042.43 1274.54 2055.21 1255.62 2065.21 1235.08C2075.22 1214.54 2082.43 1192.38 2086.54 1169.53C2090.65 1146.68 2091.69 1123.12 2089.62 1099.91C2087.57 1076.71 2082.39 1053.87 2074.28 1032.36C2066.17 1010.84 2055.13 990.652 2041.67 972.639C2028.22 954.615 2012.34 938.79 1994.72 925.834C1977.11 912.867 1957.76 902.779 1937.49 896.032C1917.22 889.269 1896.03 885.867 1874.81 885.857H1835.49V918.375H1874.81C1893.19 918.386 1911.44 921.325 1928.91 927.154C1946.38 932.967 1963.07 941.664 1978.27 952.853C1993.48 964.038 2007.21 977.716 2018.82 993.282C2030.45 1008.84 2039.97 1026.27 2046.95 1044.81C2053.95 1063.36 2058.41 1083.02 2060.19 1103.06C2060.64 1108.06 2060.88 1113.1 2061.02 1118.15C2061.11 1123.19 2061.07 1128.25 2060.85 1133.29C2060.8 1134.54 2060.71 1135.8 2060.64 1137.06L2060.54 1138.94L2060.39 1140.82C2060.28 1142.07 2060.2 1143.33 2060.08 1144.58L2059.68 1148.33C2059.57 1149.58 2059.38 1150.82 2059.23 1152.07C2059.08 1153.31 2058.93 1154.56 2058.73 1155.79L2058.17 1159.51L2057.52 1163.21C2053.98 1182.91 2047.77 1202 2039.14 1219.72C2030.51 1237.44 2019.48 1253.77 2006.53 1268.02C1993.57 1282.26 1978.71 1294.39 1962.6 1303.88C1946.48 1313.37 1929.12 1320.2 1911.2 1324.09L1907.84 1324.81L1904.46 1325.42C1903.34 1325.64 1902.2 1325.8 1901.07 1325.97C1899.94 1326.14 1898.81 1326.35 1897.67 1326.47L1894.26 1326.9C1893.13 1327.03 1891.98 1327.13 1890.84 1327.24L1889.13 1327.41L1887.42 1327.53C1886.28 1327.6 1885.14 1327.7 1883.99 1327.76C1879.41 1327.99 1874.81 1328.03 1870.22 1327.94C1865.64 1327.78 1861.06 1327.53 1856.5 1327.02C1838.28 1325.07 1820.4 1320.17 1803.53 1312.47C1786.66 1304.79 1770.81 1294.32 1756.66 1281.54C1742.51 1268.77 1730.07 1253.67 1719.89 1236.95C1709.71 1220.23 1701.81 1201.89 1696.52 1182.68C1691.42 1164.19 1688.76 1144.91 1688.56 1125.46H1687.62V0L1658.05 0V1125.47H1658.04Z" fill="var(--fill-0, #FEC9D7)"/>
<path id="Vector_12" d="M1598.89 1125.47H1599.83C1600.03 1154.3 1603.95 1183.25 1611.6 1210.97C1619.44 1239.43 1631.14 1266.57 1646.17 1291.23C1661.18 1315.9 1679.48 1338.1 1700.34 1356.92C1721.18 1375.75 1744.57 1391.21 1769.54 1402.59C1794.5 1413.98 1821.05 1421.26 1847.91 1424.12C1854.62 1424.85 1861.35 1425.25 1868.08 1425.47C1874.81 1425.62 1881.54 1425.55 1888.28 1425.2C1889.96 1425.12 1891.64 1424.99 1893.32 1424.87L1895.84 1424.7L1898.36 1424.46C1900.04 1424.29 1901.73 1424.14 1903.4 1423.95L1908.43 1423.32C1910.11 1423.13 1911.78 1422.83 1913.45 1422.59C1915.12 1422.33 1916.79 1422.09 1918.46 1421.77L1923.45 1420.85L1928.43 1419.81C1954.94 1414.05 1980.69 1403.92 2004.5 1389.88C2028.31 1375.87 2050.2 1357.98 2069.27 1337.01C2088.35 1316.03 2104.61 1291.97 2117.36 1265.78C2130.12 1239.6 2139.34 1211.29 2144.58 1182.14L2145.53 1176.67L2146.36 1171.18C2146.65 1169.35 2146.87 1167.5 2147.11 1165.67C2147.34 1163.83 2147.6 1161.99 2147.77 1160.15L2148.35 1154.62C2148.52 1152.78 2148.66 1150.93 2148.81 1149.08L2149.03 1146.31L2149.19 1143.54C2149.29 1141.69 2149.41 1139.84 2149.49 1137.99C2149.81 1130.58 2149.87 1123.19 2149.73 1115.78C2149.53 1108.38 2149.17 1100.98 2148.5 1093.6C2145.89 1064.07 2139.28 1034.88 2128.92 1007.43C2118.57 979.97 2104.51 954.255 2087.38 931.337C2070.27 908.404 2050.07 888.279 2027.64 871.774C2005.21 855.258 1980.52 842.383 1954.64 833.772C1928.77 825.136 1901.73 820.806 1874.82 820.806H1835.49V853.324H1874.82C1898.88 853.324 1923 857.198 1946.07 864.894C1969.15 872.576 1991.16 884.055 2011.18 898.793C2031.21 913.527 2049.25 931.5 2064.53 951.98C2079.83 972.446 2092.38 995.399 2101.61 1019.89C2110.85 1044.37 2116.74 1070.38 2119.07 1096.75C2121.41 1123.11 2120.24 1149.81 2115.56 1175.82C2110.89 1201.83 2102.68 1227.06 2091.29 1250.42C2079.92 1273.78 2065.4 1295.27 2048.37 1314C2031.33 1332.73 2011.79 1348.7 1990.54 1361.2C1969.3 1373.72 1946.35 1382.75 1922.7 1387.89C1899.04 1393.03 1874.76 1394.32 1850.78 1391.75C1826.8 1389.19 1803.15 1382.7 1780.89 1372.54C1758.61 1362.39 1737.74 1348.59 1719.12 1331.78C1700.5 1314.97 1684.15 1295.14 1670.75 1273.12C1657.35 1251.1 1646.9 1226.9 1639.92 1201.52C1633.12 1176.88 1629.62 1151.15 1629.42 1125.45H1628.48V0L1598.9 0V1125.47H1598.89Z" fill="var(--fill-0, #FEC9D7)"/>
<path id="Vector_13" d="M1539.74 1125.47H1540.67C1540.86 1160.56 1545.64 1195.95 1554.99 1229.83C1564.52 1264.45 1578.77 1297.46 1597.01 1327.41C1615.25 1357.37 1637.46 1384.32 1662.78 1407.18C1688.09 1430.04 1716.51 1448.84 1746.88 1462.68C1777.24 1476.54 1809.56 1485.39 1842.18 1488.86C1850.33 1489.75 1858.5 1490.25 1866.66 1490.5C1874.81 1490.69 1882.96 1490.6 1891.12 1490.17C1893.16 1490.07 1895.21 1489.92 1897.25 1489.77L1900.31 1489.55L1903.37 1489.26C1905.41 1489.06 1907.45 1488.87 1909.49 1488.64L1915.6 1487.87C1917.63 1487.63 1919.66 1487.29 1921.7 1486.99C1923.73 1486.67 1925.76 1486.37 1927.78 1485.99L1933.85 1484.87L1939.91 1483.6C1972.15 1476.6 2003.49 1464.27 2032.42 1447.21C2061.37 1430.17 2087.94 1408.45 2111.1 1382.99C2134.25 1357.53 2154 1328.32 2169.5 1296.49C2185.01 1264.67 2196.23 1230.22 2202.6 1194.76L2203.75 1188.1L2204.77 1181.43C2205.11 1179.2 2205.39 1176.97 2205.68 1174.73C2205.95 1172.5 2206.26 1170.27 2206.48 1168.03L2207.18 1161.31C2207.39 1159.07 2207.56 1156.83 2207.74 1154.58L2208.01 1151.22L2208.21 1147.85C2208.34 1145.61 2208.48 1143.36 2208.58 1141.12C2208.96 1132.14 2209.05 1123.18 2208.88 1114.22C2208.64 1105.25 2208.19 1096.26 2207.38 1087.3C2204.22 1051.43 2196.17 1015.9 2183.57 982.519C2170.98 949.117 2153.89 917.873 2133.09 890.046C2112.3 862.204 2087.8 837.778 2060.55 817.724C2033.31 797.665 2003.28 782.002 1971.8 771.523C1940.33 761.019 1907.41 755.759 1874.82 755.764H1835.49V788.282H1874.82C1904.57 788.282 1934.55 793.075 1963.22 802.645C1991.91 812.19 2019.26 826.456 2044.1 844.749C2068.94 863.031 2091.29 885.304 2110.24 910.689C2129.2 936.059 2144.78 964.546 2156.25 994.973C2167.73 1025.39 2175.06 1057.74 2177.95 1090.45C2178.69 1098.62 2179.09 1106.81 2179.31 1115C2179.46 1123.18 2179.38 1131.36 2179.03 1139.55C2178.95 1141.6 2178.82 1143.64 2178.7 1145.69L2178.52 1148.76L2178.28 1151.83C2178.11 1153.87 2177.96 1155.91 2177.77 1157.96L2177.14 1164.08C2176.94 1166.12 2176.65 1168.16 2176.4 1170.2C2176.14 1172.23 2175.88 1174.27 2175.57 1176.29L2174.64 1182.38L2173.59 1188.44C2167.79 1220.75 2157.57 1252.13 2143.43 1281.12C2129.31 1310.13 2111.3 1336.77 2090.19 1359.99C2069.07 1383.2 2044.84 1403.01 2018.46 1418.54C1992.09 1434.08 1963.55 1445.31 1934.17 1451.7L1928.66 1452.85L1923.12 1453.87C1921.28 1454.22 1919.43 1454.49 1917.58 1454.78C1915.73 1455.06 1913.87 1455.38 1912.02 1455.59L1906.45 1456.29C1904.59 1456.5 1902.73 1456.67 1900.87 1456.85L1898.08 1457.12L1895.29 1457.32C1893.43 1457.44 1891.57 1457.59 1889.71 1457.68C1882.26 1458.07 1874.82 1458.15 1867.38 1457.98C1859.93 1457.74 1852.48 1457.3 1845.05 1456.49C1815.31 1453.32 1785.88 1445.25 1758.22 1432.63C1730.54 1420.01 1704.64 1402.89 1681.57 1382.04C1658.48 1361.2 1638.22 1336.62 1621.6 1309.31C1604.96 1282.01 1591.99 1251.93 1583.3 1220.39C1574.8 1189.59 1570.45 1157.42 1570.26 1125.46H1569.32V0L1539.74 0V1125.47H1539.74Z" fill="var(--fill-0, #FEC9D7)"/>
<path id="Vector_14" d="M1480.59 1125.47H1481.52C1481.6 1135.24 1481.91 1145.03 1482.56 1154.83C1482.72 1157.46 1482.95 1160.1 1483.16 1162.74L1483.49 1166.7C1483.6 1168.02 1483.75 1169.33 1483.88 1170.65C1484.15 1173.29 1484.42 1175.92 1484.72 1178.55L1485.72 1186.44C1488.53 1207.46 1492.76 1228.3 1498.38 1248.69C1509.61 1289.47 1526.39 1328.35 1547.86 1363.59C1569.32 1398.86 1595.45 1430.54 1625.23 1457.43C1655 1484.33 1688.45 1506.45 1724.23 1522.75C1759.98 1539.08 1798.07 1549.5 1836.45 1553.6C1846.04 1554.64 1855.64 1555.23 1865.23 1555.52C1874.81 1555.75 1884.38 1555.64 1893.98 1555.13C1896.37 1555.01 1898.77 1554.83 1901.18 1554.67L1904.77 1554.4L1908.37 1554.07C1910.77 1553.83 1913.17 1553.61 1915.56 1553.34L1922.75 1552.44C1925.15 1552.15 1927.54 1551.75 1929.93 1551.39C1932.32 1551.02 1934.71 1550.66 1937.09 1550.21L1944.25 1548.9L1951.38 1547.41C1989.35 1539.16 2026.28 1524.63 2060.34 1504.55C2094.43 1484.48 2125.68 1458.93 2152.91 1428.99C2180.15 1399.04 2203.38 1364.68 2221.63 1327.2C2239.89 1289.74 2253.12 1249.14 2260.61 1207.38L2261.97 1199.55L2263.17 1191.68C2263.57 1189.06 2263.9 1186.43 2264.24 1183.8C2264.56 1181.17 2264.92 1178.54 2265.19 1175.91L2266.01 1168.01C2266.25 1165.37 2266.46 1162.73 2266.67 1160.1L2266.97 1156.14L2267.21 1152.19C2267.36 1149.55 2267.53 1146.91 2267.64 1144.27C2268.09 1133.72 2268.2 1123.2 2267.99 1112.66C2267.72 1102.12 2267.19 1091.56 2266.24 1081.01C2262.52 1038.82 2253.04 996.937 2238.19 957.621C2223.36 918.279 2203.24 881.506 2178.78 848.775C2154.33 816.023 2125.51 787.297 2093.44 763.694C2061.39 740.086 2026.03 721.636 1988.94 709.294C1970.4 703.11 1951.44 698.465 1932.33 695.368L1925.15 694.271C1922.76 693.941 1920.37 693.647 1917.97 693.347C1916.77 693.205 1915.57 693.048 1914.37 692.916L1910.78 692.555C1908.38 692.327 1905.98 692.068 1903.58 691.895C1893.98 691.123 1884.38 690.778 1874.81 690.738H1835.48V723.256H1874.81C1910.24 723.251 1946.08 728.972 1980.36 740.411C2014.65 751.819 2047.34 768.878 2076.99 790.714C2106.65 812.54 2133.31 839.118 2155.93 869.413C2178.56 899.692 2197.17 933.703 2210.87 970.075C2224.6 1006.42 2233.36 1045.13 2236.8 1084.16C2237.68 1093.92 2238.17 1103.69 2238.42 1113.44C2238.61 1123.2 2238.52 1132.93 2238.1 1142.7C2238 1145.15 2237.84 1147.59 2237.71 1150.02L2237.48 1153.68L2237.2 1157.35C2237 1159.79 2236.82 1162.22 2236.59 1164.66L2235.83 1171.97C2235.59 1174.41 2235.25 1176.84 2234.95 1179.27C2234.64 1181.7 2234.34 1184.14 2233.96 1186.56L2232.86 1193.83L2231.6 1201.07C2224.67 1239.68 2212.45 1277.21 2195.56 1311.84C2178.69 1346.5 2157.19 1378.29 2132 1405.99C2106.81 1433.69 2077.9 1457.33 2046.38 1475.88C2014.88 1494.45 1980.75 1507.89 1945.64 1515.51L1939.05 1516.89L1932.44 1518.1C1930.23 1518.51 1928.02 1518.85 1925.81 1519.19C1923.6 1519.52 1921.39 1519.89 1919.17 1520.16L1912.52 1520.99C1910.3 1521.25 1908.08 1521.45 1905.87 1521.67L1902.54 1521.98L1899.21 1522.22C1896.99 1522.37 1894.77 1522.54 1892.55 1522.65C1883.67 1523.11 1874.81 1523.22 1865.94 1523.01C1857.07 1522.73 1848.18 1522.19 1839.31 1521.22C1803.81 1517.44 1768.61 1507.8 1735.55 1492.71C1702.47 1477.64 1671.54 1457.18 1644 1432.3C1616.45 1407.43 1592.28 1378.11 1572.43 1345.5C1552.57 1312.9 1537.06 1276.95 1526.68 1239.25C1516.48 1202.3 1511.28 1163.69 1511.09 1125.47H1510.16V0L1480.58 0V1125.47H1480.59Z" fill="var(--fill-0, #FEC9D7)"/>
</g>
</svg>
