<svg preserveAspectRatio="none" width="100%" height="100%" overflow="visible" style="display: block;" viewBox="0 0 46 46" fill="none" xmlns="http://www.w3.org/2000/svg">
<g id="shopping-bag-4-fill">
<path id="Vector" d="M17.25 11.5C17.25 9.975 17.8558 8.51247 18.9341 7.43414C20.0125 6.3558 21.475 5.75 23 5.75C24.525 5.75 25.9875 6.3558 27.0659 7.43414C28.1442 8.51247 28.75 9.975 28.75 11.5H17.25ZM13.4167 11.5H7.66667C7.15833 11.5 6.67082 11.7019 6.31138 12.0614C5.95193 12.4208 5.75 12.9083 5.75 13.4167V40.25C5.75 40.7583 5.95193 41.2458 6.31138 41.6053C6.67082 41.9647 7.15833 42.1667 7.66667 42.1667H38.3333C38.8417 42.1667 39.3292 41.9647 39.6886 41.6053C40.0481 41.2458 40.25 40.7583 40.25 40.25V13.4167C40.25 12.9083 40.0481 12.4208 39.6886 12.0614C39.3292 11.7019 38.8417 11.5 38.3333 11.5H32.5833C32.5833 8.95834 31.5737 6.52078 29.7764 4.72356C27.9792 2.92634 25.5417 1.91667 23 1.91667C20.4583 1.91667 18.0208 2.92634 16.2236 4.72356C14.4263 6.52078 13.4167 8.95834 13.4167 11.5ZM17.25 19.1667C17.25 20.6917 17.8558 22.1542 18.9341 23.2325C20.0125 24.3109 21.475 24.9167 23 24.9167C24.525 24.9167 25.9875 24.3109 27.0659 23.2325C28.1442 22.1542 28.75 20.6917 28.75 19.1667H32.5833C32.5833 21.7083 31.5737 24.1459 29.7764 25.9431C27.9792 27.7403 25.5417 28.75 23 28.75C20.4583 28.75 18.0208 27.7403 16.2236 25.9431C14.4263 24.1459 13.4167 21.7083 13.4167 19.1667H17.25Z" fill="var(--fill-0, black)"/>
</g>
</svg>
