<svg preserveAspectRatio="none" width="100%" height="100%" overflow="visible" style="display: block;" viewBox="0 0 64 64" fill="none" xmlns="http://www.w3.org/2000/svg">
<g id="shopping-bag-4-fill">
<path id="Vector" d="M24 16C24 13.8783 24.8429 11.8434 26.3431 10.3431C27.8434 8.84285 29.8783 8 32 8C34.1217 8 36.1566 8.84285 37.6569 10.3431C39.1571 11.8434 40 13.8783 40 16H24ZM18.6667 16H10.6667C9.95942 16 9.28114 16.281 8.78105 16.781C8.28095 17.2811 8 17.9594 8 18.6667V56C8 56.7072 8.28095 57.3855 8.78105 57.8856C9.28114 58.3857 9.95942 58.6667 10.6667 58.6667H53.3333C54.0406 58.6667 54.7189 58.3857 55.219 57.8856C55.7191 57.3855 56 56.7072 56 56V18.6667C56 17.9594 55.7191 17.2811 55.219 16.781C54.7189 16.281 54.0406 16 53.3333 16H45.3333C45.3333 12.4638 43.9286 9.07239 41.4281 6.57191C38.9276 4.07142 35.5362 2.66667 32 2.66667C28.4638 2.66667 25.0724 4.07142 22.5719 6.57191C20.0714 9.07239 18.6667 12.4638 18.6667 16ZM24 26.6667C24 28.7884 24.8429 30.8232 26.3431 32.3235C27.8434 33.8238 29.8783 34.6667 32 34.6667C34.1217 34.6667 36.1566 33.8238 37.6569 32.3235C39.1571 30.8232 40 28.7884 40 26.6667H45.3333C45.3333 30.2029 43.9286 33.5943 41.4281 36.0948C38.9276 38.5952 35.5362 40 32 40C28.4638 40 25.0724 38.5952 22.5719 36.0948C20.0714 33.5943 18.6667 30.2029 18.6667 26.6667H24Z" fill="var(--fill-0, #6874F3)"/>
</g>
</svg>
